# Blender v2.80 (sub 75) OBJ File: 'MesaProfe.blend'
# www.blender.org
mtllib MesaProfe.mtl
o MesaProfe_Cube.002
v -2.000000 0.050000 -1.500000
v -2.000000 -0.050000 -1.500000
v 2.000000 0.050000 -1.500000
v 2.000000 -0.050000 -1.500000
v -2.000000 0.050000 1.500000
v -2.000000 -0.050000 1.500000
v 2.000000 0.050000 1.499999
v 2.000000 -0.050000 1.499999
vt 0.375000 0.000000
vt 0.625000 0.000000
vt 0.625000 0.250000
vt 0.375000 0.250000
vt 0.375000 0.250000
vt 0.625000 0.250000
vt 0.625000 0.500000
vt 0.375000 0.500000
vt 0.625000 0.750000
vt 0.375000 0.750000
vt 0.625000 0.750000
vt 0.625000 1.000000
vt 0.375000 1.000000
vt 0.125000 0.500000
vt 0.375000 0.500000
vt 0.375000 0.750000
vt 0.125000 0.750000
vt 0.625000 0.500000
vt 0.875000 0.500000
vt 0.875000 0.750000
vn 0.0000 1.0000 0.0000
vn 1.0000 0.0000 0.0000
vn 0.0000 0.0000 1.0000
vn 0.0000 -1.0000 0.0000
vn -0.0000 0.0000 -1.0000
vn -1.0000 0.0000 0.0000
usemtl Material
s off
f 1/1/1 5/2/1 7/3/1 3/4/1
f 4/5/2 3/6/2 7/7/2 8/8/2
f 8/8/3 7/7/3 5/9/3 6/10/3
f 6/10/4 2/11/4 4/12/4 8/13/4
f 2/14/5 1/15/5 3/16/5 4/17/5
f 6/18/6 5/19/6 1/20/6 2/11/6
o MesaProfe.001_Cube.000
v -1.810929 -2.038121 -1.330172
v -1.810929 -0.038121 -1.330172
v -1.810929 -2.038121 -1.230172
v -1.810929 -0.038121 -1.230172
v -1.910929 -2.038121 -1.330172
v -1.910929 -0.038121 -1.330172
v -1.910929 -2.038121 -1.230172
v -1.910929 -0.038121 -1.230172
v -1.810929 -2.038121 -1.280172
v -1.810929 -0.169668 -1.330172
v -1.810929 -0.038121 -1.280172
v -1.810929 -0.169668 -1.230172
v -1.860929 -2.038121 -1.230172
v -1.860929 -0.038121 -1.230172
v -1.910929 -0.169668 -1.230172
v -1.910929 -2.038121 -1.280172
v -1.910929 -0.038121 -1.280172
v -1.910929 -0.169668 -1.330172
v -1.860929 -2.038121 -1.330172
v -1.860929 -0.038121 -1.330172
v -1.860929 -0.038121 -1.280172
v -1.860929 -2.038121 -1.280172
v -1.860929 -0.169668 -1.330172
v -1.910929 -0.169668 -1.280172
v -1.860929 -0.169668 -1.230172
v -1.810929 -0.169668 -1.280172
v -1.810929 -0.038121 0.005056
v -1.910929 -0.038121 0.005056
v -1.810929 -0.169668 0.005056
v -1.860929 -0.038121 0.005056
v -1.910929 -0.169668 0.005056
v -1.860929 -0.169668 0.005056
v -0.014883 -0.038121 -1.330172
v -0.014883 -0.038121 -1.230172
v -0.014883 -0.169668 -1.330172
v -0.014883 -0.038121 -1.280172
v -0.014883 -0.169668 -1.230172
v -0.014883 -0.169668 -1.280172
v -1.810929 -2.038121 1.340285
v -1.810929 -0.038121 1.340285
v -1.810929 -2.038121 1.240285
v -1.810929 -0.038121 1.240285
v -1.910929 -2.038121 1.340285
v -1.910929 -0.038121 1.340285
v -1.910929 -2.038121 1.240285
v -1.910929 -0.038121 1.240285
v -1.810929 -2.038121 1.290285
v -1.810929 -0.169668 1.340285
v -1.810929 -0.038121 1.290285
v -1.810929 -0.169668 1.240285
v -1.860929 -2.038121 1.240285
v -1.860929 -0.038121 1.240285
v -1.910929 -0.169668 1.240285
v -1.910929 -2.038121 1.290285
v -1.910929 -0.038121 1.290285
v -1.910929 -0.169668 1.340285
v -1.860929 -2.038121 1.340285
v -1.860929 -0.038121 1.340285
v -1.860929 -0.038121 1.290285
v -1.860929 -2.038121 1.290285
v -1.860929 -0.169668 1.340285
v -1.910929 -0.169668 1.290285
v -1.860929 -0.169668 1.240285
v -1.810929 -0.169668 1.290285
v -0.014883 -0.038121 1.340285
v -0.014883 -0.038121 1.240285
v -0.014883 -0.169668 1.340285
v -0.014883 -0.038121 1.290285
v -0.014883 -0.169668 1.240285
v -0.014883 -0.169668 1.290285
v 1.781163 -2.038121 -1.330172
v 1.781163 -0.038121 -1.330172
v 1.781163 -2.038121 -1.230172
v 1.781163 -0.038121 -1.230172
v 1.881163 -2.038121 -1.330172
v 1.881163 -0.038121 -1.330172
v 1.881163 -2.038121 -1.230172
v 1.881163 -0.038121 -1.230172
v 1.781163 -2.038121 -1.280172
v 1.781163 -0.169668 -1.330172
v 1.781163 -0.038121 -1.280172
v 1.781163 -0.169668 -1.230172
v 1.831163 -2.038121 -1.230172
v 1.831163 -0.038121 -1.230172
v 1.881163 -0.169668 -1.230172
v 1.881163 -2.038121 -1.280172
v 1.881163 -0.038121 -1.280172
v 1.881163 -0.169668 -1.330172
v 1.831163 -2.038121 -1.330172
v 1.831163 -0.038121 -1.330172
v 1.831163 -0.038121 -1.280172
v 1.831163 -2.038121 -1.280172
v 1.831163 -0.169668 -1.330172
v 1.881163 -0.169668 -1.280172
v 1.831163 -0.169668 -1.230172
v 1.781163 -0.169668 -1.280172
v 1.781163 -0.038121 0.005056
v 1.881163 -0.038121 0.005056
v 1.781163 -0.169668 0.005056
v 1.831163 -0.038121 0.005056
v 1.881163 -0.169668 0.005056
v 1.831163 -0.169668 0.005056
v 1.781163 -2.038121 1.340284
v 1.781163 -0.038121 1.340284
v 1.781163 -2.038121 1.240284
v 1.781163 -0.038121 1.240284
v 1.881162 -2.038121 1.340284
v 1.881162 -0.038121 1.340284
v 1.881162 -2.038121 1.240284
v 1.881162 -0.038121 1.240284
v 1.781163 -2.038121 1.290285
v 1.781163 -0.169668 1.340284
v 1.781163 -0.038121 1.290285
v 1.781163 -0.169668 1.240284
v 1.831163 -2.038121 1.240284
v 1.831163 -0.038121 1.240284
v 1.881162 -0.169668 1.240284
v 1.881162 -2.038121 1.290285
v 1.881162 -0.038121 1.290285
v 1.881162 -0.169668 1.340284
v 1.831163 -2.038121 1.340284
v 1.831163 -0.038121 1.340284
v 1.831163 -0.038121 1.290285
v 1.831163 -2.038121 1.290285
v 1.831163 -0.169668 1.340284
v 1.881162 -0.169668 1.290285
v 1.831163 -0.169668 1.240284
v 1.781163 -0.169668 1.290285
vt 0.625000 0.250000
vt 0.500000 0.250000
vt 0.500000 0.250000
vt 0.625000 0.250000
vt 0.500000 0.625000
vt 0.625000 0.625000
vt 0.625000 0.750000
vt 0.500000 0.750000
vt 0.500000 0.875000
vt 0.625000 0.875000
vt 0.625000 1.000000
vt 0.500000 1.000000
vt 0.250000 0.625000
vt 0.375000 0.625000
vt 0.375000 0.750000
vt 0.250000 0.750000
vt 0.750000 0.625000
vt 0.875000 0.625000
vt 0.875000 0.750000
vt 0.750000 0.750000
vt 0.625000 0.500000
vt 0.750000 0.500000
vt 0.875000 0.500000
vt 0.125000 0.625000
vt 0.125000 0.750000
vt 0.125000 0.500000
vt 0.250000 0.500000
vt 0.375000 0.500000
vt 0.375000 0.875000
vt 0.375000 1.000000
vt 0.500000 0.500000
vt 0.375000 0.375000
vt 0.500000 0.375000
vt 0.375000 0.250000
vt 0.375000 0.125000
vt 0.500000 0.125000
vt 0.375000 0.000000
vt 0.500000 0.000000
vt 0.500000 0.125000
vt 0.625000 0.250000
vt 0.500000 0.250000
vt 0.750000 0.500000
vt 0.875000 0.500000
vt 0.500000 0.375000
vt 0.625000 0.500000
vt 0.500000 0.500000
vt 0.625000 0.375000
vt 0.625000 0.125000
vt 0.500000 0.000000
vt 0.625000 0.000000
vt 0.875000 0.500000
vt 0.875000 0.625000
vt 0.875000 0.750000
vt 0.625000 1.000000
vt 0.500000 1.000000
vt 0.625000 0.250000
vt 0.500000 0.250000
vt 0.500000 0.250000
vt 0.625000 0.250000
vt 0.500000 0.625000
vt 0.625000 0.625000
vt 0.625000 0.750000
vt 0.500000 0.750000
vt 0.500000 0.875000
vt 0.625000 0.875000
vt 0.625000 1.000000
vt 0.500000 1.000000
vt 0.250000 0.625000
vt 0.375000 0.625000
vt 0.375000 0.750000
vt 0.250000 0.750000
vt 0.750000 0.625000
vt 0.875000 0.625000
vt 0.875000 0.750000
vt 0.750000 0.750000
vt 0.625000 0.500000
vt 0.750000 0.500000
vt 0.875000 0.500000
vt 0.125000 0.625000
vt 0.125000 0.750000
vt 0.125000 0.500000
vt 0.250000 0.500000
vt 0.375000 0.500000
vt 0.375000 0.875000
vt 0.375000 1.000000
vt 0.500000 0.500000
vt 0.375000 0.375000
vt 0.500000 0.375000
vt 0.375000 0.250000
vt 0.375000 0.125000
vt 0.500000 0.125000
vt 0.375000 0.000000
vt 0.500000 0.000000
vt 0.500000 0.125000
vt 0.625000 0.125000
vt 0.500000 0.000000
vt 0.625000 0.000000
vt 0.875000 0.500000
vt 0.875000 0.625000
vt 0.875000 0.750000
vt 0.625000 1.000000
vt 0.500000 1.000000
vt 0.625000 0.250000
vt 0.500000 0.250000
vt 0.500000 0.625000
vt 0.625000 0.625000
vt 0.625000 0.750000
vt 0.500000 0.750000
vt 0.500000 0.875000
vt 0.625000 0.875000
vt 0.625000 1.000000
vt 0.500000 1.000000
vt 0.250000 0.625000
vt 0.375000 0.625000
vt 0.375000 0.750000
vt 0.250000 0.750000
vt 0.750000 0.625000
vt 0.875000 0.625000
vt 0.875000 0.750000
vt 0.750000 0.750000
vt 0.625000 0.500000
vt 0.750000 0.500000
vt 0.875000 0.500000
vt 0.125000 0.625000
vt 0.125000 0.750000
vt 0.125000 0.500000
vt 0.250000 0.500000
vt 0.375000 0.500000
vt 0.375000 0.875000
vt 0.375000 1.000000
vt 0.500000 0.500000
vt 0.375000 0.375000
vt 0.500000 0.375000
vt 0.375000 0.250000
vt 0.375000 0.125000
vt 0.500000 0.125000
vt 0.375000 0.000000
vt 0.500000 0.000000
vt 0.625000 0.250000
vt 0.500000 0.250000
vt 0.750000 0.500000
vt 0.875000 0.500000
vt 0.500000 0.375000
vt 0.625000 0.500000
vt 0.500000 0.500000
vt 0.625000 0.375000
vt 0.625000 0.250000
vt 0.500000 0.250000
vt 0.500000 0.625000
vt 0.625000 0.625000
vt 0.625000 0.750000
vt 0.500000 0.750000
vt 0.500000 0.875000
vt 0.625000 0.875000
vt 0.625000 1.000000
vt 0.500000 1.000000
vt 0.250000 0.625000
vt 0.375000 0.625000
vt 0.375000 0.750000
vt 0.250000 0.750000
vt 0.750000 0.625000
vt 0.875000 0.625000
vt 0.875000 0.750000
vt 0.750000 0.750000
vt 0.625000 0.500000
vt 0.750000 0.500000
vt 0.875000 0.500000
vt 0.125000 0.625000
vt 0.125000 0.750000
vt 0.125000 0.500000
vt 0.250000 0.500000
vt 0.375000 0.500000
vt 0.375000 0.875000
vt 0.375000 1.000000
vt 0.500000 0.500000
vt 0.375000 0.375000
vt 0.500000 0.375000
vt 0.375000 0.250000
vt 0.375000 0.125000
vt 0.500000 0.125000
vt 0.375000 0.000000
vt 0.500000 0.000000
vn 0.0000 0.0000 1.0000
vn -1.0000 0.0000 0.0000
vn 0.0000 0.0000 -1.0000
vn 0.0000 -1.0000 0.0000
vn 0.0000 1.0000 0.0000
vn 1.0000 0.0000 0.0000
usemtl Material.001
s off
f 12/21/7 20/22/7 45/23/7 42/24/7
f 32/25/8 25/26/8 14/27/8 26/28/8
f 31/29/9 28/30/9 10/31/9 18/32/9
f 30/33/10 24/34/10 13/35/10 27/36/10
f 29/37/11 19/38/11 10/39/11 28/40/11
f 25/26/11 29/37/11 28/40/11 14/27/11
f 16/41/11 22/42/11 29/37/11 25/26/11
f 22/42/11 12/43/11 19/38/11 29/37/11
f 17/44/10 30/33/10 27/36/10 9/45/10
f 11/46/10 21/47/10 30/33/10 17/44/10
f 21/47/10 15/48/10 24/34/10 30/33/10
f 27/49/9 31/29/9 18/32/9 9/50/9
f 13/35/9 26/28/9 31/29/9 27/49/9
f 26/28/9 14/27/9 28/30/9 31/29/9
f 24/34/8 32/25/8 26/28/8 13/35/8
f 15/48/8 23/51/8 32/25/8 24/34/8
f 23/51/8 16/41/8 25/26/8 32/25/8
f 21/52/7 33/53/7 23/51/7 15/48/7
f 11/54/7 20/22/7 33/53/7 21/52/7
f 17/55/12 34/56/12 20/22/12 11/54/12
f 9/57/12 18/58/12 34/56/12 17/55/12
f 20/22/10 34/56/10 46/59/10 45/23/10
f 20/22/12 12/21/12 35/60/12 37/61/12
f 12/43/11 22/42/11 38/62/11 35/63/11
f 33/53/10 20/22/10 37/61/10 40/64/10
f 22/42/11 16/41/11 36/65/11 38/62/11
f 16/41/8 23/51/8 39/66/8 36/65/8
f 23/51/10 33/53/10 40/64/10 39/66/10
f 40/64/7 38/67/7 36/65/7 39/66/7
f 37/61/7 35/60/7 38/67/7 40/64/7
f 46/59/12 44/68/12 42/24/12 45/23/12
f 43/69/12 41/70/12 44/68/12 46/59/12
f 19/38/11 12/43/11 42/71/11 44/72/11
f 34/56/10 18/58/10 43/69/10 46/59/10
f 10/39/11 19/38/11 44/72/11 41/73/11
f 18/32/9 10/31/9 41/74/9 43/75/9
f 50/76/7 58/77/7 77/78/7 74/79/7
f 70/80/12 63/81/12 52/82/12 64/83/12
f 69/84/9 66/85/9 48/86/9 56/87/9
f 68/88/11 62/89/11 51/90/11 65/91/11
f 67/92/10 57/93/10 48/94/10 66/95/10
f 63/81/10 67/92/10 66/95/10 52/82/10
f 54/96/10 60/97/10 67/92/10 63/81/10
f 60/97/10 50/98/10 57/93/10 67/92/10
f 55/99/11 68/88/11 65/91/11 47/100/11
f 49/101/11 59/102/11 68/88/11 55/99/11
f 59/102/11 53/103/11 62/89/11 68/88/11
f 65/104/9 69/84/9 56/87/9 47/105/9
f 51/90/9 64/83/9 69/84/9 65/104/9
f 64/83/9 52/82/9 66/85/9 69/84/9
f 62/89/12 70/80/12 64/83/12 51/90/12
f 53/103/12 61/106/12 70/80/12 62/89/12
f 61/106/12 54/96/12 63/81/12 70/80/12
f 59/107/7 71/108/7 61/106/7 53/103/7
f 49/109/7 58/77/7 71/108/7 59/107/7
f 55/110/8 72/111/8 58/77/8 49/109/8
f 47/112/8 56/113/8 72/111/8 55/110/8
f 58/77/11 72/111/11 78/114/11 77/78/11
f 58/77/8 50/76/8 35/60/8 37/61/8
f 50/98/10 60/97/10 38/62/10 35/63/10
f 71/108/11 58/77/11 37/61/11 40/64/11
f 60/97/10 54/96/10 36/65/10 38/62/10
f 54/96/12 61/106/12 39/66/12 36/65/12
f 61/106/11 71/108/11 40/64/11 39/66/11
f 78/114/8 76/115/8 74/79/8 77/78/8
f 75/116/8 73/117/8 76/115/8 78/114/8
f 57/93/10 50/98/10 74/118/10 76/119/10
f 72/111/11 56/113/11 75/116/11 78/114/11
f 48/94/10 57/93/10 76/119/10 73/120/10
f 56/87/9 48/86/9 73/121/9 75/122/9
f 82/123/9 90/124/9 45/23/9 42/24/9
f 102/125/8 95/126/8 84/127/8 96/128/8
f 101/129/7 98/130/7 80/131/7 88/132/7
f 100/133/11 94/134/11 83/135/11 97/136/11
f 99/137/10 89/138/10 80/139/10 98/140/10
f 95/126/10 99/137/10 98/140/10 84/127/10
f 86/141/10 92/142/10 99/137/10 95/126/10
f 92/142/10 82/143/10 89/138/10 99/137/10
f 87/144/11 100/133/11 97/136/11 79/145/11
f 81/146/11 91/147/11 100/133/11 87/144/11
f 91/147/11 85/148/11 94/134/11 100/133/11
f 97/149/7 101/129/7 88/132/7 79/150/7
f 83/135/7 96/128/7 101/129/7 97/149/7
f 96/128/7 84/127/7 98/130/7 101/129/7
f 94/134/8 102/125/8 96/128/8 83/135/8
f 85/148/8 93/151/8 102/125/8 94/134/8
f 93/151/8 86/141/8 95/126/8 102/125/8
f 91/152/9 103/153/9 93/151/9 85/148/9
f 81/154/9 90/124/9 103/153/9 91/152/9
f 87/155/12 104/156/12 90/124/12 81/154/12
f 79/157/12 88/158/12 104/156/12 87/155/12
f 90/124/11 104/156/11 46/59/11 45/23/11
f 90/124/12 82/123/12 105/159/12 107/160/12
f 82/143/10 92/142/10 108/161/10 105/162/10
f 103/153/11 90/124/11 107/160/11 110/163/11
f 92/142/10 86/141/10 106/164/10 108/161/10
f 86/141/8 93/151/8 109/165/8 106/164/8
f 93/151/11 103/153/11 110/163/11 109/165/11
f 110/163/9 108/166/9 106/164/9 109/165/9
f 107/160/9 105/159/9 108/166/9 110/163/9
f 89/138/10 82/143/10 42/71/10 44/72/10
f 104/156/11 88/158/11 43/69/11 46/59/11
f 80/139/10 89/138/10 44/72/10 41/73/10
f 88/132/7 80/131/7 41/74/7 43/75/7
f 114/167/9 122/168/9 77/78/9 74/79/9
f 134/169/12 127/170/12 116/171/12 128/172/12
f 133/173/7 130/174/7 112/175/7 120/176/7
f 132/177/10 126/178/10 115/179/10 129/180/10
f 131/181/11 121/182/11 112/183/11 130/184/11
f 127/170/11 131/181/11 130/184/11 116/171/11
f 118/185/11 124/186/11 131/181/11 127/170/11
f 124/186/11 114/187/11 121/182/11 131/181/11
f 119/188/10 132/177/10 129/180/10 111/189/10
f 113/190/10 123/191/10 132/177/10 119/188/10
f 123/191/10 117/192/10 126/178/10 132/177/10
f 129/193/7 133/173/7 120/176/7 111/194/7
f 115/179/7 128/172/7 133/173/7 129/193/7
f 128/172/7 116/171/7 130/174/7 133/173/7
f 126/178/12 134/169/12 128/172/12 115/179/12
f 117/192/12 125/195/12 134/169/12 126/178/12
f 125/195/12 118/185/12 127/170/12 134/169/12
f 123/196/9 135/197/9 125/195/9 117/192/9
f 113/198/9 122/168/9 135/197/9 123/196/9
f 119/199/8 136/200/8 122/168/8 113/198/8
f 111/201/8 120/202/8 136/200/8 119/199/8
f 122/168/10 136/200/10 78/114/10 77/78/10
f 122/168/8 114/167/8 105/159/8 107/160/8
f 114/187/11 124/186/11 108/161/11 105/162/11
f 135/197/10 122/168/10 107/160/10 110/163/10
f 124/186/11 118/185/11 106/164/11 108/161/11
f 118/185/12 125/195/12 109/165/12 106/164/12
f 125/195/10 135/197/10 110/163/10 109/165/10
f 121/182/11 114/187/11 74/118/11 76/119/11
f 136/200/10 120/202/10 75/116/10 78/114/10
f 112/183/11 121/182/11 76/119/11 73/120/11
f 120/176/7 112/175/7 73/121/7 75/122/7
