# Blender v2.80 (sub 75) OBJ File: 'MOUSE.blend'
# www.blender.org
mtllib mouse.mtl
o Sphere
v 0.698271 0.597471 -0.010367
v 0.685717 0.579587 0.093142
v 0.621721 0.603091 0.189561
v 0.531931 0.670870 0.210455
v 0.210308 0.798101 0.218659
v 0.111302 0.831403 0.162870
v 0.048501 0.846691 0.054933
v 0.072905 0.838296 -0.116463
v 0.129927 0.823947 -0.178963
v -1.808007 0.982898 -0.177538
v -1.824121 0.929209 -0.366335
v -1.828456 0.838945 -0.541712
v -1.796843 0.713053 -0.700487
v -1.840411 0.418942 -0.904202
v -1.857391 0.199012 -0.972794
v -1.843846 0.000078 -0.994579
v -1.868657 -0.195093 -0.971628
v 0.137950 0.556241 -0.693520
v 0.162212 0.404704 -0.815493
v 0.180240 0.382683 -0.906127
v 0.194141 0.099064 -0.978888
v 0.191342 -0.195090 -0.961940
v 0.167571 0.677288 -0.537285
v 0.375330 0.195090 -0.906127
v 0.474291 0.000000 -0.887336
v 0.336526 0.558438 -0.623230
v 0.382631 0.405038 -0.741950
v 0.450093 0.382981 -0.811315
v 0.463635 -0.195096 -0.867399
v 0.197790 0.772417 -0.339515
v 0.653282 0.382683 -0.653281
v 0.623740 0.196749 -0.760029
v 0.782339 -0.008211 -0.628707
v 0.693520 -0.195090 -0.693520
v 0.398856 0.687299 -0.383584
v 0.541367 0.560809 -0.451703
v 0.647353 0.404462 -0.530173
v 0.815493 0.195090 -0.544895
v 0.653282 0.556241 -0.270598
v 0.816347 0.383182 -0.437743
v 0.860440 -0.195103 -0.479501
v 0.774747 0.404706 -0.294207
v 0.906128 0.382683 -0.180240
v 0.947172 0.196721 -0.269276
v 0.957396 0.008211 -0.301199
v 0.961940 -0.195090 -0.191341
v 0.831470 0.441629 0.000000
v 1.000000 0.000000 0.000000
v 0.926385 0.385635 0.030362
v 0.978121 0.196721 0.113689
v 0.978797 -0.195096 0.096404
v 0.770899 0.405781 0.307598
v 0.963383 0.008210 0.281462
v 0.906127 -0.195090 0.375331
v 0.623824 0.563477 0.328979
v 0.825832 0.382739 0.422967
v 0.860159 0.196721 0.479345
v 0.831470 0.000000 0.555571
v 0.431732 0.684695 0.346125
v 0.636042 0.405934 0.540928
v 0.653282 0.382683 0.653282
v 0.699830 0.108694 0.711215
v 0.750361 -0.195099 0.638152
v 0.447006 0.559569 0.549410
v 0.448886 0.196721 0.876440
v 0.199014 0.559048 0.680552
v 0.391271 0.406415 0.735721
v 0.451667 0.382739 0.810492
v 0.480361 -0.008325 0.883165
v 0.463634 -0.195101 0.867399
v 0.190201 0.774741 0.339643
v 0.223516 0.680690 0.518540
v 0.162212 0.405835 0.815493
v 0.180240 0.382683 0.906128
v 0.194141 0.099062 0.978889
v 0.191342 -0.195090 0.961940
v -1.819156 0.563830 0.823541
v -1.808134 0.982887 0.177511
v -1.784845 0.713005 0.700602
v -1.827655 0.420347 0.904075
v -1.861131 0.202203 0.971926
v -1.851866 -0.004125 0.994231
v -1.857684 -0.195092 0.972305
v -1.775661 0.926671 0.377242
v -1.828647 0.838917 0.541700
v -2.122209 0.553554 0.732561
v -2.102185 0.000000 0.923880
v -1.963480 0.924077 0.297288
v -2.051827 0.706054 0.629770
v -2.142010 0.385203 0.824936
v -2.198848 0.196721 0.860159
v -2.184680 -0.195106 0.870285
v -1.719502 1.000000 0.000001
v -2.079376 0.830959 0.427075
v -2.425538 0.385202 0.600455
v -2.348210 0.008210 0.782339
v -2.260869 0.711675 0.451704
v -2.366420 0.562888 0.521498
v -2.491527 0.196722 0.611246
v -2.550972 0.000000 0.555570
v -2.479783 -0.195096 0.623948
v -2.211771 0.833658 0.256708
v -2.601578 0.385202 0.284560
v -2.080005 0.923878 0.141015
v -2.271528 0.833630 0.050304
v -2.399806 0.706054 0.210325
v -2.522258 0.553554 0.233243
v -2.666674 0.196721 0.269277
v -2.676897 0.008210 0.301201
v -2.663815 -0.195106 0.286456
v -2.426609 0.707107 0.000000
v -2.696239 0.204562 -0.105850
v -2.719502 0.000000 0.000000
v -2.392519 0.711676 -0.210146
v -2.548567 0.558704 -0.084218
v -2.643330 0.385202 -0.074657
v -2.700287 0.000000 -0.195090
v -2.698299 -0.195097 -0.096403
v -1.918997 0.981286 0.000000
v -2.255996 0.830959 -0.155163
v -2.487679 0.555570 -0.318189
v -2.596799 0.000000 -0.488896
v -2.625629 -0.195090 -0.375330
v -2.267532 0.706054 -0.454655
v -2.544438 0.385203 -0.422507
v -2.588688 0.197140 -0.463467
v -2.076154 0.928498 -0.144261
v -2.359423 0.553553 -0.537884
v -2.372783 0.382683 -0.653281
v -2.348209 0.008211 -0.782339
v -2.491780 -0.195097 -0.611445
v -2.124136 0.834055 -0.384987
v -2.104772 0.562888 -0.736226
v -2.345164 0.197140 -0.760811
v -2.053005 0.708742 -0.623941
v -2.170679 0.385203 -0.809612
v -2.095125 0.091309 -0.928101
v -2.199003 -0.195107 -0.860438
v -1.805493 0.564014 -0.823747
v 0.061844 0.836723 -0.012828
v 0.242576 0.792598 -0.222270
v 0.249337 0.797694 0.216261
v 0.531751 0.669760 -0.211396
v 0.644028 0.587992 -0.163802
vt 0.643879 0.193239
vt 0.680943 0.246331
vt 0.639544 0.296552
vt 0.569357 0.265424
vt 0.532136 0.283585
vt 0.532198 0.255297
vt 0.606490 0.286870
vt 0.569251 0.313007
vt 0.420614 0.273640
vt 0.457771 0.284505
vt 0.420552 0.301526
vt 0.383413 0.282853
vt 0.383328 0.321012
vt 0.617644 0.315677
vt 0.532056 0.319595
vt 0.346112 0.336872
vt 0.346170 0.310656
vt 0.494873 0.320378
vt 0.457651 0.338663
vt 0.457713 0.310903
vt 0.420491 0.329411
vt 0.420425 0.358967
vt 0.566784 0.349708
vt 0.531992 0.348249
vt 0.542829 0.362336
vt 0.494805 0.351002
vt 0.457589 0.366675
vt 0.383250 0.356237
vt 0.346046 0.366428
vt 0.535391 0.382854
vt 0.494729 0.385348
vt 0.420343 0.396148
vt 0.383126 0.412008
vt 0.383186 0.385100
vt 0.345923 0.422199
vt 0.345985 0.394313
vt 0.542836 0.408537
vt 0.566774 0.421323
vt 0.531808 0.431378
vt 0.494649 0.421282
vt 0.457449 0.430071
vt 0.457541 0.388341
vt 0.494581 0.452084
vt 0.420260 0.433329
vt 0.383062 0.440872
vt 0.403579 0.459508
vt 0.606393 0.439523
vt 0.621799 0.461562
vt 0.606049 0.485949
vt 0.568949 0.449498
vt 0.531724 0.469490
vt 0.457383 0.459627
vt 0.494502 0.487794
vt 0.640874 0.467263
vt 0.568846 0.495752
vt 0.531640 0.507221
vt 0.494441 0.515481
vt 0.420137 0.489100
vt 0.401634 0.515275
vt 0.382961 0.486654
vt 0.680325 0.525188
vt 0.643026 0.578324
vt 0.568719 0.553044
vt 0.531478 0.580122
vt 0.531561 0.542960
vt 0.419931 0.582052
vt 0.382714 0.597913
vt 0.382774 0.571005
vt 0.605798 0.599385
vt 0.605911 0.548290
vt 0.568614 0.600541
vt 0.531397 0.617042
vt 0.345573 0.580218
vt 0.345490 0.617399
vt 0.419848 0.619233
vt 0.382650 0.626776
vt 0.605691 0.647700
vt 0.568532 0.637449
vt 0.531314 0.654484
vt 0.680077 0.636731
vt 0.642835 0.664573
vt 0.550339 0.177264
vt 0.520148 0.201230
vt 0.520580 0.155436
vt 0.522028 0.159088
vt 0.523038 0.120938
vt 0.550522 0.128069
vt 0.605613 0.683042
vt 0.421004 0.097959
vt 0.383804 0.106243
vt 0.383845 0.087653
vt 0.518639 0.158101
vt 0.479533 0.192485
vt 0.492065 0.156131
vt 0.490042 0.117448
vt 0.487073 0.079417
vt 0.514368 0.083473
vt 0.527421 0.210179
vt 0.564523 0.245899
vt 0.527213 0.304350
vt 0.383739 0.135799
vt 0.346524 0.150967
vt 0.346582 0.124751
vt 0.477292 0.196319
vt 0.445372 0.155982
vt 0.490529 0.160216
vt 0.523462 0.276670
vt 0.486263 0.284762
vt 0.486328 0.255208
vt 0.383658 0.172288
vt 0.346441 0.188148
vt 0.606660 0.210569
vt 0.606850 0.124604
vt 0.448766 0.120001
vt 0.456985 0.156827
vt 0.414857 0.133970
vt 0.420841 0.171297
vt 0.457984 0.188397
vt 0.400811 0.199234
vt 0.569462 0.217985
vt 0.569590 0.160067
vt 0.532263 0.226297
vt 0.532342 0.190230
vt 0.420726 0.223115
vt 0.383542 0.224591
vt 0.646210 0.407567
vt 0.645507 0.386196
vt 0.680613 0.395055
vt 0.495017 0.255214
vt 0.457836 0.255132
vt 0.457905 0.223992
vt 0.495080 0.226777
vt 0.402211 0.255009
vt 0.346294 0.254885
vt 0.346367 0.221855
vt 0.494959 0.281697
vt 0.346232 0.282770
vt 0.680819 0.302103
vt 0.645236 0.325475
vt 0.534807 0.395316
vt 0.345857 0.451755
vt 0.457325 0.485843
vt 0.345779 0.487265
vt 0.457260 0.515398
vt 0.345717 0.515151
vt 0.382829 0.546370
vt 0.345646 0.547119
vt 0.494374 0.545471
vt 0.457193 0.545236
vt 0.420007 0.547619
vt 0.494294 0.581668
vt 0.457119 0.578797
vt 0.494212 0.618558
vt 0.457037 0.615978
vt 0.494129 0.656030
vt 0.456954 0.653159
vt 0.419766 0.656414
vt 0.382591 0.653684
vt 0.345408 0.654580
vt 0.517379 0.089201
vt 0.544144 0.089116
vt 0.545891 0.126292
vt 0.517498 0.126382
vt 0.553890 0.175742
vt 0.520711 0.159579
vt 0.554785 0.134820
vt 0.456889 0.682713
vt 0.494070 0.682795
vt 0.419708 0.682630
vt 0.382527 0.682548
vt 0.345985 0.394314
vt 0.492748 0.158408
vt 0.492166 0.121177
vt 0.520800 0.122275
vt 0.519376 0.159429
vt 0.519000 0.203257
vt 0.490534 0.182312
vt 0.519500 0.157463
vt 0.486411 0.218027
vt 0.523587 0.220069
vt 0.523526 0.247664
vt 0.515930 0.124439
vt 0.488029 0.117911
vt 0.515067 0.086052
vt 0.449144 0.256698
vt 0.449224 0.220542
vt 0.420923 0.134116
vt 0.445084 0.154445
vt 0.452713 0.117492
vt 0.489613 0.118687
vt 0.490416 0.155914
vt 0.490184 0.235715
vt 0.453365 0.115385
vt 0.456439 0.078326
vt 0.485303 0.081201
vt 0.490103 0.119043
vt 0.449061 0.293879
vt 0.523380 0.313560
vt 0.560644 0.276139
vt 0.560563 0.312813
vt 0.486205 0.310979
vt 0.495160 0.190978
vt 0.680531 0.432236
vt 0.646071 0.373530
vt 0.680695 0.357874
vn 0.0809 0.9875 -0.1354
vn 0.2123 0.7526 -0.6233
vn 0.2625 0.8533 -0.4505
vn 0.4925 0.2279 -0.8400
vn 0.6431 0.0070 -0.7658
vn 0.1769 0.9564 -0.2322
vn 0.4201 0.7491 -0.5121
vn 0.7784 -0.1594 -0.6071
vn 0.2093 0.9646 -0.1606
vn 0.8764 0.2354 -0.4201
vn 0.3890 0.8973 -0.2088
vn 0.6265 0.7603 -0.1718
vn 0.2307 0.9698 -0.0786
vn 0.9316 -0.1565 -0.3281
vn 0.7483 0.6248 -0.2227
vn 0.9911 0.0363 0.1279
vn 0.9561 -0.1543 0.2491
vn 0.6196 0.7574 0.2059
vn 0.2534 0.9647 0.0720
vn 0.6962 0.5948 0.4020
vn 0.9000 0.0370 0.4342
vn 0.7964 0.1140 0.5939
vn 0.0221 0.9809 0.1931
vn 0.5103 0.7489 0.4226
vn 0.2202 0.9614 0.1652
vn 0.5051 0.5865 0.6332
vn 0.1988 0.9556 0.2175
vn 0.3114 0.8638 0.3961
vn 0.3156 0.7353 0.5998
vn 0.2613 0.6019 0.7546
vn 0.3441 0.0835 0.9352
vn 0.0790 0.9877 0.1347
vn -0.1895 0.7435 0.6414
vn -0.4974 0.0363 0.8667
vn -0.1361 0.9477 0.2888
vn -0.4201 0.7459 0.5168
vn -0.6303 -0.1804 0.7551
vn -0.7456 0.0370 0.6653
vn -0.2308 0.9579 0.1709
vn -0.5848 0.7457 0.3192
vn -0.0933 0.9944 0.0493
vn -0.4747 0.8694 0.1373
vn -0.6464 0.7581 0.0862
vn -0.3274 0.9448 0.0109
vn -0.9932 0.0623 -0.0978
vn -0.4740 0.8793 -0.0473
vn -0.7650 0.6098 -0.2072
vn -0.0933 0.9944 -0.0493
vn -0.8592 -0.1566 -0.4871
vn -0.4504 0.8580 -0.2469
vn -0.7246 0.4237 -0.5436
vn -0.6373 -0.1798 -0.7493
vn -0.2222 0.9427 -0.2491
vn -0.4169 0.7481 -0.5164
vn -0.4761 0.2208 -0.8512
vn -0.2468 0.8641 -0.4386
vn -0.2017 0.7475 -0.6329
vn -0.2237 0.0910 -0.9704
vn 0.0896 0.9878 -0.1277
vn 0.0361 0.7132 -0.7001
vn 0.0071 0.2702 -0.9628
vn 0.0081 -0.0817 -0.9966
vn 0.0024 0.1090 -0.9940
vn 0.0781 0.9577 -0.2769
vn 0.0741 0.8903 -0.4492
vn 0.0654 0.7855 -0.6154
vn 0.0543 0.6329 -0.7723
vn 0.2474 0.6348 -0.7320
vn 0.0766 0.9710 -0.2266
vn 0.2784 0.2895 -0.9158
vn 0.3053 -0.0799 -0.9489
vn 0.3349 0.0795 -0.9389
vn 0.4915 0.6265 -0.6050
vn 0.3050 0.8034 -0.5113
vn 0.4986 0.1711 -0.8498
vn 0.1364 0.9759 -0.1703
vn 0.6244 -0.0712 -0.7779
vn 0.5788 0.3349 -0.7435
vn 0.0788 0.9849 -0.1542
vn 0.7395 0.2879 -0.6085
vn 0.3219 0.9048 -0.2787
vn 0.8873 0.0821 -0.4537
vn 0.7386 0.1505 -0.6572
vn 0.1758 0.9797 -0.0960
vn 0.5437 0.7724 -0.3284
vn 0.8821 -0.0075 -0.4711
vn 0.6780 0.6277 -0.3825
vn 0.9669 0.2406 -0.0846
vn 0.4607 0.8609 -0.2160
vn 0.7420 0.6303 -0.2282
vn 0.8870 0.3435 -0.3086
vn 0.9870 0.1218 -0.1046
vn 0.9904 -0.0939 -0.1013
vn 0.3975 0.9080 -0.1323
vn 0.7403 0.6370 0.2149
vn 0.9138 0.3083 0.2645
vn 0.4528 0.8710 0.1907
vn 0.9905 -0.0433 0.1301
vn 0.8779 -0.0972 0.4689
vn 0.9334 0.1950 0.3011
vn 0.6002 0.7717 0.2102
vn 0.7265 0.6458 0.2348
vn 0.5272 0.7917 0.3087
vn 0.1857 0.9768 0.1067
vn 0.7528 0.2804 0.5956
vn 0.4041 0.8908 0.2076
vn 0.7515 -0.0335 0.6589
vn 0.3233 0.8903 0.3206
vn 0.5696 0.6750 0.4689
vn 0.1457 0.9722 0.1833
vn 0.3708 0.8031 0.4664
vn 0.5933 0.2615 0.7613
vn 0.6318 -0.0957 0.7692
vn 0.5740 0.1147 0.8107
vn 0.0813 0.9684 0.2356
vn 0.3452 0.6717 0.6554
vn 0.2930 0.2772 0.9150
vn 0.3082 -0.0770 0.9482
vn 0.0083 -0.0800 0.9968
vn 0.0786 0.9611 0.2649
vn 0.0750 0.8795 0.4700
vn 0.0678 0.7919 0.6068
vn 0.0558 0.6403 0.7661
vn 0.0362 0.7171 0.6961
vn 0.0072 0.2696 0.9630
vn -0.2291 0.6329 0.7396
vn 0.0020 0.1076 0.9942
vn -0.2652 0.4859 0.8328
vn -0.2854 0.2946 0.9120
vn -0.2938 0.1251 0.9477
vn -0.2848 -0.1209 0.9509
vn -0.2087 0.8820 0.4224
vn -0.4992 -0.0269 0.8661
vn -0.4932 0.6310 0.5988
vn -0.2685 0.8034 0.5315
vn -0.5579 0.4669 0.6861
vn -0.6078 0.2884 0.7399
vn -0.3689 0.8838 0.2879
vn -0.6354 0.1950 0.7471
vn -0.7442 -0.0379 0.6668
vn -0.6855 0.6307 0.3637
vn -0.4717 0.7960 0.3792
vn -0.7772 0.4689 0.4197
vn -0.8447 0.2884 0.4509
vn -0.8841 0.1323 0.4482
vn -0.8797 -0.1243 0.4590
vn -0.7818 0.6175 0.0859
vn -0.2273 0.9647 0.1332
vn -0.5816 0.7959 0.1683
vn -0.8806 0.4648 0.0921
vn -0.9516 0.2922 0.0955
vn -0.9871 0.1210 0.1053
vn -0.9868 -0.1163 0.1126
vn -0.6277 0.7752 -0.0714
vn -0.4297 0.9029 0.0088
vn -0.9934 -0.0596 -0.0978
vn -0.8625 0.4460 -0.2393
vn -0.7382 0.6664 -0.1053
vn -0.9163 0.2946 -0.2712
vn -0.9445 0.1163 -0.3073
vn -0.9516 -0.0938 -0.2927
vn -0.5517 0.7771 -0.3029
vn -0.2120 0.9694 -0.1237
vn -0.6704 0.6395 -0.3763
vn -0.7562 0.2705 -0.5958
vn -0.7391 0.5133 -0.4362
vn -0.7652 0.0995 -0.6360
vn -0.4887 0.6305 -0.6031
vn -0.7629 -0.0046 -0.6465
vn -0.2707 0.9133 -0.3043
vn -0.5418 0.4922 -0.6813
vn -0.2244 0.6358 -0.7385
vn -0.5773 0.3434 -0.7408
vn -0.5220 0.1049 -0.8465
vn -0.4922 -0.0270 -0.8700
vn -0.2839 0.8118 -0.5102
vn -0.2681 0.4815 -0.8345
vn -0.2965 0.2967 -0.9078
vn -0.3046 -0.0969 -0.9475
vn 0.0000 -1.0000 -0.0000
vn 0.0832 0.9923 0.0921
vn 0.0914 0.9955 0.0249
usemtl Material.001
s off
f 10/1/1 93/2/1 9/3/1
f 23/4/2 26/5/2 18/6/2
f 30/7/3 35/8/3 23/4/3
f 24/9/4 28/10/4 32/11/4
f 25/12/5 32/11/5 33/13/5
f 30/7/6 9/3/6 141/14/6
f 35/8/7 36/15/7 26/5/7
f 33/13/8 41/16/8 34/17/8
f 37/18/9 40/19/9 31/20/9
f 38/21/10 40/19/10 44/22/10
f 143/23/11 35/8/11 141/14/11
f 39/24/12 143/23/12 144/25/12
f 42/26/13 43/27/13 40/19/13
f 45/28/14 46/29/14 41/16/14
f 1/30/15 47/31/15 42/26/15
f 50/32/16 53/33/16 48/34/16
f 53/33/17 54/35/17 51/36/17
f 3/37/18 4/38/18 55/39/18
f 52/40/19 56/41/19 49/42/19
f 52/40/20 55/39/20 60/43/20
f 57/44/21 58/45/21 53/33/21
f 57/44/22 62/46/22 58/45/22
f 142/47/23 5/48/23 71/49/23
f 59/50/24 64/51/24 55/39/24
f 60/43/25 61/52/25 56/41/25
f 60/43/26 64/51/26 67/53/26
f 5/48/27 6/54/27 71/49/27
f 71/49/28 72/55/28 59/50/28
f 72/55/29 66/56/29 64/51/29
f 66/56/30 73/57/30 67/53/30
f 65/58/31 75/59/31 69/60/31
f 6/54/32 93/61/32 78/62/32
f 85/63/33 89/64/33 79/65/33
f 91/66/34 96/67/34 87/68/34
f 78/62/35 88/69/35 84/70/35
f 94/71/36 97/72/36 89/64/36
f 92/73/37 96/67/37 101/74/37
f 99/75/38 100/76/38 96/67/38
f 88/69/39 78/62/39 104/77/39
f 102/78/40 106/79/40 97/72/40
f 78/62/41 93/80/41 119/81/41
f 102/82/42 104/83/42 105/84/42
f 105/85/43 111/86/43 106/87/43
f 119/81/44 127/88/44 104/77/44
f 112/89/45 117/90/45 113/91/45
f 105/92/46 127/93/46 120/94/46
f 114/95/47 121/96/47 115/97/47
f 119/98/48 93/99/48 10/100/48
f 122/101/49 131/102/49 123/103/49
f 127/104/50 132/105/50 120/106/50
f 128/107/51 129/108/51 125/109/51
f 130/110/52 138/111/52 131/102/52
f 10/1/53 11/112/53 127/113/53
f 124/114/54 132/115/54 135/116/54
f 134/117/55 136/118/55 137/119/55
f 11/112/56 12/120/56 132/121/56
f 12/120/57 13/122/57 135/123/57
f 137/119/58 15/124/58 16/125/58
f 7/126/59 140/127/59 93/128/59
f 19/129/60 20/130/60 14/131/60 139/132/60
f 20/130/61 21/133/61 15/124/61 14/131/61
f 22/134/62 17/135/62 16/125/62 21/133/62
f 16/125/63 15/124/63 21/133/63
f 9/3/64 30/7/64 11/112/64 10/1/64
f 30/7/65 23/4/65 12/120/65 11/112/65
f 23/4/66 18/6/66 13/122/66 12/120/66
f 18/6/67 19/129/67 139/132/67 13/122/67
f 27/136/68 19/129/68 18/6/68 26/5/68
f 28/10/69 20/130/69 19/129/69 27/136/69
f 24/9/70 21/133/70 20/130/70 28/10/70
f 25/12/71 29/137/71 22/134/71 21/133/71
f 21/133/72 24/9/72 25/12/72
f 37/18/73 27/136/73 26/5/73 36/15/73
f 23/4/74 35/8/74 26/5/74
f 24/9/75 32/11/75 25/12/75
f 31/20/76 28/10/76 27/136/76 37/18/76
f 34/17/77 29/137/77 25/12/77 33/13/77
f 28/10/78 31/20/78 32/11/78
f 9/3/79 93/138/79 8/139/79
f 38/21/80 32/11/80 31/20/80 40/19/80
f 30/7/81 141/14/81 35/8/81
f 45/28/82 33/13/82 38/21/82 44/22/82
f 33/13/83 32/11/83 38/21/83
f 37/18/84 42/26/84 40/19/84
f 39/24/85 36/15/85 35/8/85 143/23/85
f 33/13/86 45/28/86 41/16/86
f 39/24/87 42/26/87 37/18/87 36/15/87
f 49/42/88 50/32/88 44/22/88 43/27/88
f 1/30/89 39/24/89 144/25/89
f 39/24/90 1/30/90 42/26/90
f 44/22/91 40/19/91 43/27/91
f 48/34/92 45/28/92 44/22/92 50/32/92
f 48/34/93 51/36/93 46/29/93 45/28/93
f 49/42/94 43/27/94 42/26/94 47/31/94
f 2/140/95 52/40/95 47/31/95 1/30/95
f 56/41/96 57/44/96 50/32/96 49/42/96
f 49/42/97 47/31/97 52/40/97
f 48/34/98 53/33/98 51/36/98
f 58/45/99 63/141/99 54/35/99 53/33/99
f 50/32/100 57/44/100 53/33/100
f 55/39/101 2/140/101 3/37/101
f 2/140/102 55/39/102 52/40/102
f 4/38/103 59/50/103 55/39/103
f 52/40/104 60/43/104 56/41/104
f 61/52/105 62/46/105 57/44/105 56/41/105
f 4/38/106 142/47/106 59/50/106
f 58/45/107 62/46/107 63/141/107
f 142/47/108 71/49/108 59/50/108
f 55/39/109 64/51/109 60/43/109
f 68/142/110 61/52/110 60/43/110 67/53/110
f 64/51/111 59/50/111 72/55/111
f 68/142/112 65/58/112 62/46/112 61/52/112
f 69/60/113 70/143/113 63/141/113 62/46/113
f 62/46/114 65/58/114 69/60/114
f 74/144/115 68/142/115 67/53/115 73/57/115
f 64/51/116 66/56/116 67/53/116
f 74/144/117 75/59/117 65/58/117 68/142/117
f 76/145/118 70/143/118 69/60/118 75/59/118
f 82/146/119 83/147/119 76/145/119 75/59/119
f 84/70/120 71/49/120 6/54/120 78/62/120
f 85/63/121 72/55/121 71/49/121 84/70/121
f 79/65/122 66/56/122 72/55/122 85/63/122
f 77/148/123 73/57/123 66/56/123 79/65/123
f 80/149/124 74/144/124 73/57/124 77/148/124
f 81/150/125 75/59/125 74/144/125 80/149/125
f 89/64/126 86/151/126 77/148/126 79/65/126
f 75/59/127 81/150/127 82/146/127
f 90/152/128 80/149/128 77/148/128 86/151/128
f 90/152/129 91/66/129 81/150/129 80/149/129
f 87/68/130 82/146/130 81/150/130 91/66/130
f 92/73/131 83/147/131 82/146/131 87/68/131
f 88/69/132 94/71/132 85/63/132 84/70/132
f 87/68/133 96/67/133 92/73/133
f 98/153/134 86/151/134 89/64/134 97/72/134
f 85/63/135 94/71/135 89/64/135
f 95/154/136 90/152/136 86/151/136 98/153/136
f 95/154/137 99/75/137 91/66/137 90/152/137
f 102/78/138 94/71/138 88/69/138 104/77/138
f 91/66/139 99/75/139 96/67/139
f 101/74/140 96/67/140 100/76/140
f 106/79/141 107/155/141 98/153/141 97/72/141
f 94/71/142 102/78/142 97/72/142
f 103/156/143 95/154/143 98/153/143 107/155/143
f 103/156/144 108/157/144 99/75/144 95/154/144
f 109/158/145 100/76/145 99/75/145 108/157/145
f 110/159/146 101/74/146 100/76/146 109/158/146
f 115/160/147 107/161/147 106/162/147 111/163/147
f 78/62/148 119/81/148 104/77/148
f 102/164/149 105/165/149 106/166/149
f 116/167/150 103/156/150 107/155/150 115/168/150
f 116/167/151 112/169/151 108/157/151 103/156/151
f 113/170/152 109/158/152 108/157/152 112/169/152
f 113/170/153 118/171/153 110/159/153 109/158/153
f 120/172/154 114/173/154 111/174/154 105/175/154
f 104/176/155 127/177/155 105/178/155
f 113/91/156 117/90/156 118/171/156
f 125/109/157 116/179/157 115/180/157 121/181/157
f 111/182/158 114/183/158 115/184/158
f 125/109/159 126/185/159 112/186/159 116/179/159
f 126/187/160 122/101/160 117/90/160 112/89/160
f 123/103/161 118/171/161 117/90/161 122/101/161
f 132/188/162 124/189/162 114/190/162 120/191/162
f 127/192/163 119/98/163 10/100/163
f 124/193/164 128/194/164 121/195/164 114/196/164
f 129/108/165 134/197/165 126/185/165 125/109/165
f 121/181/166 128/107/166 125/109/166
f 134/117/167 130/110/167 122/101/167 126/187/167
f 133/198/168 128/107/168 124/199/168 135/200/168
f 122/101/169 130/110/169 131/102/169
f 132/121/170 127/113/170 11/112/170
f 136/201/171 129/108/171 128/107/171 133/198/171
f 13/122/172 139/132/172 133/202/172 135/123/172
f 134/197/173 129/108/173 136/201/173
f 130/110/174 134/117/174 137/119/174
f 138/111/175 130/110/175 137/119/175
f 135/123/176 132/121/176 12/120/176
f 14/131/177 136/118/177 133/202/177 139/132/177
f 14/131/178 15/124/178 137/119/178 136/118/178
f 17/135/179 138/111/179 137/119/179 16/125/179
f 83/147/180 92/73/180 101/74/180 110/159/180 118/171/180 123/103/180 131/102/180 138/111/180 17/135/180 22/134/180 29/137/180 34/17/180 41/16/180 46/29/180 51/36/180 54/35/180 63/141/180 70/143/180 76/145/180
f 6/54/181 7/126/181 93/203/181
f 140/204/182 8/139/182 93/205/182
o Sphere.001_Sphere.003
v 0.576969 0.692246 -0.164785
v 0.567642 0.748819 -0.078586
v 0.645848 0.659061 -0.109741
v 0.630558 0.707967 -0.041284
v 0.698271 0.597471 -0.010367
v 0.667683 0.663307 0.013557
v 0.685717 0.579587 0.093142
v 0.628277 0.699335 0.080013
v 0.621721 0.603091 0.189561
v 0.566832 0.727842 0.126368
v 0.531931 0.670870 0.210455
v 0.210308 0.798101 0.218659
v 0.276444 0.866475 0.125719
v 0.583398 0.752098 0.020096
v 0.280502 0.894893 0.023383
v 0.158679 0.881625 0.107688
v 0.111302 0.831403 0.162870
v 0.048501 0.846691 0.054933
v 0.227459 0.902763 0.031903
v 0.145369 0.898673 0.014454
v 0.101918 0.878582 -0.050815
v 0.072905 0.838296 -0.116463
v 0.175481 0.884490 -0.100508
v 0.129927 0.823947 -0.178963
v 0.280393 0.887855 -0.068229
v 0.246408 0.845876 -0.170857
v 0.061844 0.836723 -0.012828
v 0.242576 0.792598 -0.222270
v 0.249337 0.797694 0.216261
v 0.531751 0.669760 -0.211396
v 0.644028 0.587992 -0.163802
vt 0.491271 0.672001
vt 0.503463 0.672381
vt 0.491574 0.681171
vt 0.500717 0.685696
vt 0.494453 0.693665
vt 0.508770 0.700987
vt 0.498193 0.702500
vt 0.486843 0.691364
vt 0.485200 0.698197
vt 0.484695 0.706468
vt 0.498440 0.713332
vt 0.486543 0.716491
vt 0.488308 0.722070
vt 0.498366 0.723763
vt 0.490401 0.734416
vt 0.508479 0.735111
vt 0.502092 0.738348
vt 0.491614 0.742743
vt 0.479927 0.741343
vt 0.481044 0.732245
vt 0.506139 0.645458
vt 0.501759 0.655707
vt 0.499573 0.641866
vt 0.512763 0.651287
vt 0.477515 0.648630
vt 0.490647 0.650792
vt 0.479397 0.654564
vt 0.490110 0.660509
vt 0.482107 0.662106
vt 0.513100 0.664222
vt 0.490243 0.641190
vt 0.483971 0.644959
vt 0.482995 0.640739
vt 0.485168 0.668465
vt 0.481882 0.679679
vt 0.482749 0.723873
vt 0.482807 0.743374
vt 0.478706 0.642382
vn 0.6292 0.6793 -0.3778
vn 0.8495 0.5003 -0.1677
vn 0.7241 0.6869 0.0625
vn 0.9157 0.3623 0.1737
vn 0.7973 0.4290 0.4246
vn 0.5637 0.7819 0.2663
vn 0.5626 0.5570 0.6109
vn 0.0094 0.7949 0.6067
vn 0.1836 0.9453 0.2698
vn 0.0711 0.9422 0.3273
vn -0.0894 0.9774 0.1915
vn -0.4372 0.8195 0.3705
vn 0.1344 0.9880 -0.0761
vn 0.4248 0.9026 -0.0698
vn -0.3019 0.8315 -0.4663
vn 0.0950 0.9100 -0.4037
vn -0.0812 0.6951 -0.7143
vn 0.4307 0.8971 -0.0986
vn -0.6233 0.7608 0.1808
vn 0.5751 0.3630 -0.7331
vn 0.6461 0.6819 -0.3429
vn 0.5900 0.7984 -0.1207
vn 0.8687 0.4653 -0.1699
vn 0.7286 0.6821 0.0622
vn 0.8565 0.4404 0.2692
vn 0.6502 0.5510 0.5230
vn 0.3324 0.7054 0.6260
vn -0.0451 0.7880 0.6141
vn -0.4598 0.8872 0.0389
vn -0.0035 0.9908 -0.1354
vn 0.3759 0.8004 -0.4669
vn -0.1922 0.9666 -0.1696
vn -0.3288 0.8628 -0.3841
vn -0.1146 0.8176 -0.5643
vn 0.3300 0.6843 -0.6502
vn 0.4147 0.8717 0.2611
vn 0.6808 0.4323 -0.5913
vn 0.9123 0.2329 -0.3369
vn -0.7516 0.6558 -0.0703
vn 0.3025 0.6505 -0.6966
usemtl Material.001
s off
f 145/206/183 146/207/183 147/208/183
f 148/209/184 150/210/184 147/208/184
f 148/209/185 158/211/185 152/212/185
f 149/213/186 150/210/186 151/214/186
f 152/212/187 153/215/187 151/214/187
f 152/212/188 158/211/188 154/216/188
f 154/216/189 155/217/189 153/215/189
f 173/218/190 157/219/190 160/220/190
f 157/219/191 159/221/191 163/222/191
f 157/219/192 163/222/192 160/220/192
f 163/222/193 164/223/193 160/220/193
f 160/220/194 162/224/194 161/225/194
f 159/226/195 169/227/195 163/228/195
f 159/226/196 158/229/196 169/227/196
f 166/230/197 167/231/197 168/232/197
f 169/227/198 170/233/198 167/231/198
f 170/233/199 172/234/199 168/232/199
f 169/227/200 158/235/200 146/207/200
f 164/236/201 165/237/201 171/238/201
f 174/239/202 145/206/202 175/240/202
f 147/208/203 146/207/203 148/209/203
f 146/207/204 158/211/204 148/209/204
f 147/208/205 150/210/205 149/213/205
f 148/209/206 152/212/206 150/210/206
f 151/214/207 150/210/207 152/212/207
f 153/215/208 152/212/208 154/216/208
f 157/219/209 173/218/209 155/217/209 154/216/209
f 160/220/210 161/225/210 156/241/210 173/218/210
f 164/223/211 171/242/211 162/224/211 160/220/211
f 167/231/212 164/236/212 163/228/212 169/227/212
f 145/206/213 170/233/213 169/227/213 146/207/213
f 164/236/214 167/231/214 165/237/214
f 166/230/215 165/237/215 167/231/215
f 168/232/216 167/231/216 170/233/216
f 170/233/217 145/206/217 174/239/217
f 159/221/218 157/219/218 154/216/218 158/211/218
f 175/240/219 145/206/219 147/208/219
f 149/213/220 175/240/220 147/208/220
f 166/230/221 171/243/221 165/237/221
f 170/233/222 174/239/222 172/234/222
