# Blender v2.80 (sub 75) OBJ File: 'silla.blend'
# www.blender.org
mtllib silla.mtl
o Cube.002
v 0.367714 -1.916915 -0.487273
v 0.367714 -0.853859 -0.684212
v 0.367714 -1.914117 -0.573188
v 0.367714 -0.869008 -0.770127
v 0.454955 -1.916915 -0.487273
v 0.454955 -0.853859 -0.684212
v 0.454955 -1.914117 -0.573188
v 0.454955 -0.869008 -0.770127
v 0.367714 -0.773203 -0.698434
v 0.367714 -0.788352 -0.784349
v 0.454955 -0.788352 -0.784349
v 0.454955 -0.773203 -0.698434
v 0.367714 -0.869008 -1.595671
v 0.454955 -0.869008 -1.595671
v 0.367714 -0.788352 -1.609893
v 0.454955 -0.788352 -1.609893
v 0.367714 -0.869008 -1.595671
v 0.454955 -0.869008 -1.595671
v 0.367714 -0.788352 -1.609893
v 0.454955 -0.788352 -1.609893
v 0.367714 -0.878213 -1.623765
v 0.454955 -0.878213 -1.623765
v 0.367714 -0.788352 -1.609893
v 0.454955 -0.788352 -1.609893
v 0.367714 -0.866288 -1.730783
v 0.454955 -0.866288 -1.730783
v 0.367714 -0.788352 -1.717573
v 0.454955 -0.788352 -1.717573
v 0.367714 -1.926127 -1.740527
v 0.454955 -1.926127 -1.740527
v 0.367714 -1.914203 -1.847544
v 0.454955 -1.914203 -1.847544
v 0.367714 -0.829750 -1.787194
v 0.454955 -0.829750 -1.787194
v 0.367714 -0.816744 -1.709223
v 0.454955 -0.816744 -1.709223
v 0.367714 0.388141 -1.990337
v 0.454955 0.388141 -1.990337
v 0.367714 0.401146 -1.912366
v 0.454955 0.401146 -1.912366
v 0.391271 0.536875 -2.020611
v 0.441980 0.607864 -2.020611
v 0.380689 0.544434 -1.942641
v 0.431398 0.615423 -1.942641
v 0.266032 0.631378 -2.048953
v 0.292496 0.714507 -2.048953
v 0.253640 0.635323 -1.970983
v 0.280104 0.718452 -1.970983
v 0.380689 0.544434 -1.942641
v 0.391271 0.536875 -2.020611
v 0.266032 0.631378 -2.048953
v -0.496164 0.764340 -2.073092
v 0.253640 0.635323 -1.970983
v -0.499475 0.678793 -2.073233
v 0.148831 0.675874 -2.072809
v 0.137639 0.762394 -2.072809
v 0.135933 0.674206 -1.994838
v 0.124741 0.760725 -1.994838
v 0.135933 0.674206 -1.994838
v 0.148831 0.675874 -2.072809
v -0.499475 0.677125 -1.995262
v -0.500463 0.762671 -1.995121
v -0.739482 -1.911077 -0.488121
v -0.739482 -0.848021 -0.685060
v -0.739482 -1.908279 -0.574037
v -0.739482 -0.863170 -0.770975
v -0.826723 -1.911077 -0.488121
v -0.826723 -0.848021 -0.685060
v -0.826723 -1.908279 -0.574037
v -0.826723 -0.863170 -0.770975
v -0.739482 -0.767365 -0.699282
v -0.739482 -0.782514 -0.785197
v -0.826723 -0.782514 -0.785197
v -0.826723 -0.767365 -0.699282
v -0.739482 -0.863170 -1.596519
v -0.826723 -0.863170 -1.596519
v -0.739482 -0.782515 -1.610741
v -0.826723 -0.782515 -1.610741
v -0.739482 -0.863170 -1.596519
v -0.826723 -0.863170 -1.596519
v -0.739482 -0.782515 -1.610741
v -0.826723 -0.782515 -1.610741
v -0.739482 -0.872375 -1.624614
v -0.826723 -0.872375 -1.624614
v -0.739482 -0.782515 -1.610741
v -0.826723 -0.782515 -1.610741
v -0.739482 -0.860450 -1.731631
v -0.826723 -0.860450 -1.731631
v -0.739482 -0.782514 -1.718421
v -0.826723 -0.782514 -1.718421
v -0.739482 -1.920289 -1.741375
v -0.826723 -1.920289 -1.741375
v -0.739482 -1.908365 -1.848393
v -0.826723 -1.908365 -1.848393
v -0.739482 -0.823912 -1.788042
v -0.826723 -0.823912 -1.788042
v -0.739482 -0.810907 -1.710072
v -0.826723 -0.810907 -1.710072
v -0.739482 0.393979 -1.991185
v -0.826723 0.393979 -1.991185
v -0.739482 0.406984 -1.913214
v -0.826723 0.406984 -1.913214
v -0.763039 0.542713 -2.021459
v -0.813748 0.613702 -2.021459
v -0.752457 0.550272 -1.943489
v -0.803165 0.621262 -1.943489
v -0.637800 0.637216 -2.049801
v -0.664264 0.720345 -2.049801
v -0.625408 0.641161 -1.971831
v -0.651872 0.724290 -1.971831
v -0.752457 0.550272 -1.943489
v -0.763039 0.542713 -2.021459
v -0.637800 0.637216 -2.049801
v -0.625408 0.641161 -1.971831
v 0.365774 -0.771339 -1.722550
v 0.365774 -0.858579 -1.722550
v 0.365774 -0.771339 -0.617505
v 0.365774 -0.858579 -0.617505
v -0.739272 -0.771339 -1.722550
v -0.739272 -0.858579 -1.722550
v -0.739272 -0.771339 -0.617505
v -0.739272 -0.858579 -0.617505
v -0.739272 -0.554204 -1.747864
v -0.739272 0.419500 -1.919554
v -0.739272 -0.569353 -1.833779
v -0.739272 0.404351 -2.005470
v 0.365774 -0.554204 -1.747864
v 0.365774 0.419500 -1.919554
v 0.365774 -0.569353 -1.833779
v 0.365774 0.404351 -2.005470
vt 0.375000 0.000000
vt 0.625000 0.000000
vt 0.625000 0.250000
vt 0.375000 0.250000
vt 0.625000 0.500000
vt 0.375000 0.500000
vt 0.625000 0.750000
vt 0.375000 0.750000
vt 0.625000 1.000000
vt 0.375000 1.000000
vt 0.125000 0.500000
vt 0.125000 0.750000
vt 0.625000 0.500000
vt 0.625000 0.750000
vt 0.875000 0.500000
vt 0.875000 0.750000
vt 0.625000 0.000000
vt 0.625000 0.250000
vt 0.625000 1.000000
vt 0.625000 0.250000
vt 0.625000 0.250000
vt 0.625000 0.250000
vt 0.625000 0.250000
vt 0.625000 0.500000
vt 0.875000 0.500000
vt 0.625000 0.500000
vt 0.625000 0.500000
vt 0.625000 0.500000
vt 0.625000 0.500000
vt 0.625000 0.500000
vt 0.875000 0.500000
vt 0.625000 0.250000
vt 0.625000 0.250000
vt 0.625000 0.500000
vt 0.625000 0.250000
vt 0.875000 0.500000
vt 0.625000 0.250000
vt 0.625000 0.250000
vt 0.625000 0.250000
vt 0.625000 0.250000
vt 0.625000 0.500000
vt 0.875000 0.500000
vt 0.625000 0.500000
vt 0.625000 0.250000
vt 0.625000 0.500000
vt 0.625000 0.250000
vt 0.625000 0.250000
vt 0.625000 0.500000
vt 0.875000 0.500000
vt 0.625000 0.500000
vt 0.875000 0.500000
vt 0.625000 0.500000
vt 0.625000 0.500000
vt 0.875000 0.500000
vt 0.625000 0.500000
vt 0.625000 0.500000
vt 0.625000 0.500000
vt 0.625000 0.500000
vt 0.625000 0.250000
vt 0.625000 0.250000
vt 0.875000 0.500000
vt 0.625000 0.500000
vt 0.875000 0.500000
vt 0.625000 0.250000
vt 0.875000 0.500000
vt 0.875000 0.500000
vt 0.625000 0.250000
vt 0.625000 0.250000
vt 0.625000 0.250000
vt 0.625000 0.250000
vt 0.625000 0.250000
vt 0.625000 0.250000
vt 0.875000 0.500000
vt 0.625000 0.250000
vt 0.625000 0.500000
vt 0.875000 0.500000
vt 0.625000 0.250000
vt 0.625000 0.250000
vt 0.625000 0.500000
vt 0.625000 0.500000
vt 0.375000 0.000000
vt 0.625000 0.000000
vt 0.625000 0.250000
vt 0.375000 0.250000
vt 0.625000 0.500000
vt 0.375000 0.500000
vt 0.625000 0.750000
vt 0.375000 0.750000
vt 0.625000 1.000000
vt 0.375000 1.000000
vt 0.125000 0.500000
vt 0.125000 0.750000
vt 0.625000 0.500000
vt 0.625000 0.750000
vt 0.875000 0.500000
vt 0.875000 0.750000
vt 0.625000 0.000000
vt 0.625000 0.250000
vt 0.625000 1.000000
vt 0.625000 0.250000
vt 0.625000 0.250000
vt 0.625000 0.250000
vt 0.625000 0.250000
vt 0.625000 0.500000
vt 0.875000 0.500000
vt 0.625000 0.500000
vt 0.625000 0.500000
vt 0.625000 0.500000
vt 0.625000 0.500000
vt 0.625000 0.500000
vt 0.875000 0.500000
vt 0.625000 0.250000
vt 0.625000 0.250000
vt 0.625000 0.500000
vt 0.625000 0.250000
vt 0.875000 0.500000
vt 0.625000 0.250000
vt 0.625000 0.250000
vt 0.625000 0.250000
vt 0.625000 0.250000
vt 0.625000 0.500000
vt 0.875000 0.500000
vt 0.625000 0.500000
vt 0.625000 0.250000
vt 0.625000 0.500000
vt 0.625000 0.250000
vt 0.625000 0.250000
vt 0.625000 0.500000
vt 0.875000 0.500000
vt 0.625000 0.500000
vt 0.875000 0.500000
vt 0.625000 0.500000
vt 0.625000 0.500000
vt 0.875000 0.500000
vt 0.625000 0.500000
vt 0.625000 0.500000
vt 0.625000 0.500000
vt 0.625000 0.500000
vt 0.625000 0.250000
vt 0.625000 0.250000
vt 0.875000 0.500000
vt 0.625000 0.250000
vt 0.875000 0.500000
vt 0.875000 0.500000
vt 0.625000 0.250000
vt 0.625000 0.250000
vt 0.625000 0.250000
vt 0.625000 0.250000
vt 0.007436 0.011768
vt 0.982564 0.011768
vt 0.982564 0.986895
vt 0.007436 0.986895
vt 0.375000 0.250000
vt 0.625000 0.250000
vt 0.625000 0.500000
vt 0.375000 0.500000
vt 0.625000 0.750000
vt 0.375000 0.750000
vt 0.625000 0.750000
vt 0.625000 1.000000
vt 0.375000 1.000000
vt 0.125000 0.500000
vt 0.375000 0.500000
vt 0.375000 0.750000
vt 0.125000 0.750000
vt 0.625000 0.500000
vt 0.875000 0.500000
vt 0.875000 0.750000
vt 0.375000 0.000000
vt 0.625000 0.000000
vt 0.625000 0.250000
vt 0.375000 0.250000
vt -0.004602 0.007306
vt 0.994602 0.007306
vt 0.994602 1.006509
vt -0.004602 1.006509
vt 0.375000 0.500000
vt 0.625000 0.500000
vt 0.625000 0.750000
vt 0.375000 0.750000
vt 0.034416 0.043554
vt 0.961615 0.043554
vt 0.961615 0.970753
vt 0.034416 0.970753
vt 0.125000 0.500000
vt 0.125000 0.750000
vt 0.875000 0.500000
vt 0.875000 0.750000
vn -1.0000 0.0000 0.0000
vn 0.0000 -0.1852 -0.9827
vn 1.0000 0.0000 0.0000
vn 0.0000 0.1822 0.9833
vn 0.0000 -0.9995 -0.0325
vn 0.0000 0.9848 -0.1736
vn 0.0000 0.1736 0.9848
vn 0.0000 0.0000 1.0000
vn 0.0000 1.0000 0.0000
vn 0.0000 -1.0000 0.0000
vn 0.0000 -0.1107 0.9938
vn 0.0000 -0.9503 0.3113
vn 0.0000 -0.9938 -0.1107
vn 0.0000 0.1107 -0.9938
vn 0.0000 -0.2821 -0.9594
vn 0.0000 -0.8393 -0.5436
vn -0.0844 0.1639 0.9829
vn 0.0000 0.1645 0.9864
vn 0.0000 -0.1645 -0.9864
vn 0.5688 0.8222 0.0231
vn 0.9943 0.0914 0.0554
vn 0.0844 -0.1639 -0.9829
vn -0.9909 0.1071 -0.0814
vn -0.1677 0.0151 0.9857
vn 0.1489 -0.0745 -0.9860
vn -0.1489 0.0745 0.9860
vn -0.3272 -0.9442 -0.0393
vn -0.5880 -0.8084 -0.0270
vn -0.0006 -0.0009 1.0000
vn -0.0045 -0.9998 -0.0218
vn 0.2746 0.9611 0.0305
vn 0.1677 -0.0151 -0.9857
vn -0.9995 0.0136 -0.0273
vn 0.0031 0.9998 0.0217
vn 0.0006 0.0008 -1.0000
vn 0.0000 0.1852 0.9827
vn 0.0000 -0.1822 -0.9833
vn 0.0000 0.9995 0.0325
vn 0.0000 -0.9848 0.1736
vn 0.0000 -0.1736 -0.9848
vn 0.0000 0.9503 -0.3113
vn 0.0000 0.9938 0.1107
vn 0.0000 0.2821 0.9594
vn 0.0000 0.8393 0.5436
vn -0.0844 -0.1639 -0.9829
vn 0.5688 -0.8222 -0.0231
vn 0.9943 -0.0914 -0.0554
vn 0.0844 0.1639 0.9829
vn -0.9909 -0.1071 0.0814
vn -0.1595 -0.0251 -0.9869
vn 0.1489 0.0745 0.9860
vn -0.1489 -0.0745 -0.9860
vn -0.2802 0.9599 0.0083
vn -0.5880 0.8084 0.0270
vn 0.2498 -0.9683 0.0012
vn 0.1455 0.0191 0.9892
vn 0.0000 0.0000 -1.0000
usemtl Material.002
s off
f 1/1/1 2/2/1 4/3/1 3/4/1
f 3/4/2 4/3/2 8/5/2 7/6/2
f 7/6/3 8/5/3 6/7/3 5/8/3
f 5/8/4 6/7/4 2/9/4 1/10/4
f 3/11/5 7/6/5 5/8/5 1/12/5
f 6/7/3 8/5/3 11/13/3 12/14/3
f 11/13/6 10/15/6 9/16/6 12/14/6
f 4/3/1 2/2/1 9/17/1 10/18/1
f 2/9/7 6/7/7 12/14/7 9/19/7
f 4/3/1 10/18/1 15/20/1 13/21/1
f 13/21/8 15/20/8 19/22/8 17/23/8
f 10/15/9 11/13/9 16/24/9 15/25/9
f 8/5/10 4/3/10 13/21/10 14/26/10
f 11/13/3 8/5/3 14/26/3 16/24/3
f 20/27/3 18/28/3 22/29/3 24/30/3
f 15/25/8 16/24/8 20/27/8 19/31/8
f 16/24/8 14/26/8 18/28/8 20/27/8
f 14/26/8 13/21/8 17/23/8 18/28/8
f 22/29/11 21/32/11 29/33/11 30/34/11
f 18/28/12 17/23/12 21/32/12 22/29/12
f 17/23/1 19/22/1 23/35/1 21/32/1
f 19/31/8 20/27/8 24/30/8 23/36/8
f 25/37/1 27/38/1 35/39/1 33/40/1
f 21/32/1 23/35/1 27/38/1 25/37/1
f 23/36/9 24/30/9 28/41/9 27/42/9
f 24/30/3 22/29/3 26/43/3 28/41/3
f 30/34/13 29/33/13 31/44/13 32/45/13
f 21/32/1 25/37/1 31/44/1 29/33/1
f 25/37/14 26/43/14 32/45/14 31/44/14
f 26/43/3 22/29/3 30/34/3 32/45/3
f 33/40/1 35/39/1 39/46/1 37/47/1
f 27/42/15 28/41/15 36/48/15 35/49/15
f 28/41/3 26/43/3 34/50/3 36/48/3
f 26/43/16 25/37/16 33/40/16 34/50/16
f 39/51/17 40/52/17 44/53/17 43/54/17
f 35/49/18 36/48/18 40/52/18 39/51/18
f 36/48/3 34/50/3 38/55/3 40/52/3
f 34/50/19 33/40/19 37/47/19 38/55/19
f 44/53/20 42/56/20 46/57/20 48/58/20
f 40/52/21 38/55/21 42/56/21 44/53/21
f 38/55/22 37/47/22 41/59/22 42/56/22
f 37/47/23 39/46/23 43/60/23 41/59/23
f 47/61/24 48/58/24 58/62/24 57/63/24
f 42/56/25 41/59/25 45/64/25 46/57/25
f 43/54/8 47/61/8 53/65/8 49/66/8
f 43/54/26 44/53/26 48/58/26 47/61/26
f 51/67/27 53/68/27 59/69/27 60/70/27
f 50/71/28 49/72/28 53/68/28 51/67/28
f 45/64/8 41/59/8 50/71/8 51/67/8
f 41/59/8 43/60/8 49/72/8 50/71/8
f 53/65/8 47/61/8 57/63/8 59/73/8
f 45/64/8 51/67/8 60/70/8 55/74/8
f 57/63/29 58/62/29 62/75/29 61/76/29
f 59/73/8 57/63/8 61/76/8
f 60/70/30 59/69/30 61/77/30 54/78/30
f 55/74/8 60/70/8 54/78/8
f 48/58/31 46/57/31 56/79/31 58/62/31
f 46/57/32 45/64/32 55/74/32 56/79/32
f 52/80/33 54/78/33 61/77/33 62/75/33
f 58/62/34 56/79/34 52/80/34 62/75/34
f 56/79/35 55/74/35 54/78/35 52/80/35
f 63/81/1 64/82/1 66/83/1 65/84/1
f 65/84/36 66/83/36 70/85/36 69/86/36
f 69/86/3 70/85/3 68/87/3 67/88/3
f 67/88/37 68/87/37 64/89/37 63/90/37
f 65/91/38 69/86/38 67/88/38 63/92/38
f 68/87/3 70/85/3 73/93/3 74/94/3
f 73/93/39 72/95/39 71/96/39 74/94/39
f 66/83/1 64/82/1 71/97/1 72/98/1
f 64/89/40 68/87/40 74/94/40 71/99/40
f 66/83/1 72/98/1 77/100/1 75/101/1
f 75/101/8 77/100/8 81/102/8 79/103/8
f 72/95/10 73/93/10 78/104/10 77/105/10
f 70/85/9 66/83/9 75/101/9 76/106/9
f 73/93/3 70/85/3 76/106/3 78/104/3
f 82/107/3 80/108/3 84/109/3 86/110/3
f 77/105/8 78/104/8 82/107/8 81/111/8
f 78/104/8 76/106/8 80/108/8 82/107/8
f 76/106/8 75/101/8 79/103/8 80/108/8
f 84/109/14 83/112/14 91/113/14 92/114/14
f 80/108/41 79/103/41 83/112/41 84/109/41
f 79/103/1 81/102/1 85/115/1 83/112/1
f 81/111/8 82/107/8 86/110/8 85/116/8
f 87/117/1 89/118/1 97/119/1 95/120/1
f 83/112/1 85/115/1 89/118/1 87/117/1
f 85/116/10 86/110/10 90/121/10 89/122/10
f 86/110/3 84/109/3 88/123/3 90/121/3
f 92/114/42 91/113/42 93/124/42 94/125/42
f 83/112/1 87/117/1 93/124/1 91/113/1
f 87/117/11 88/123/11 94/125/11 93/124/11
f 88/123/3 84/109/3 92/114/3 94/125/3
f 95/120/1 97/119/1 101/126/1 99/127/1
f 89/122/43 90/121/43 98/128/43 97/129/43
f 90/121/3 88/123/3 96/130/3 98/128/3
f 88/123/44 87/117/44 95/120/44 96/130/44
f 101/131/45 102/132/45 106/133/45 105/134/45
f 97/129/19 98/128/19 102/132/19 101/131/19
f 98/128/3 96/130/3 100/135/3 102/132/3
f 96/130/18 95/120/18 99/127/18 100/135/18
f 106/133/46 104/136/46 108/137/46 110/138/46
f 102/132/47 100/135/47 104/136/47 106/133/47
f 100/135/48 99/127/48 103/139/48 104/136/48
f 99/127/49 101/126/49 105/140/49 103/139/49
f 109/141/50 110/138/50 62/75/50 61/76/50
f 104/136/51 103/139/51 107/142/51 108/137/51
f 105/134/8 109/141/8 114/143/8 111/144/8
f 105/134/52 106/133/52 110/138/52 109/141/52
f 113/145/53 114/146/53 61/77/53 54/78/53
f 112/147/54 111/148/54 114/146/54 113/145/54
f 107/142/8 103/139/8 112/147/8 113/145/8
f 103/139/8 105/140/8 111/148/8 112/147/8
f 114/143/8 109/141/8 61/76/8
f 107/142/8 113/145/8 54/78/8
f 110/138/55 108/137/55 52/80/55 62/75/55
f 108/137/56 107/142/56 54/78/56 52/80/56
usemtl Material.001
f 115/149/9 119/150/9 121/151/9 117/152/9
f 118/153/8 117/154/8 121/155/8 122/156/8
f 122/156/1 121/155/1 119/157/1 120/158/1
f 120/158/10 116/159/10 118/160/10 122/161/10
f 116/162/3 115/163/3 117/164/3 118/165/3
f 120/166/57 119/167/57 115/168/57 116/159/57
f 123/169/1 124/170/1 126/171/1 125/172/1
f 125/173/40 126/174/40 130/175/40 129/176/40
f 129/177/3 130/178/3 128/179/3 127/180/3
f 127/181/7 128/182/7 124/183/7 123/184/7
f 125/185/39 129/177/39 127/180/39 123/186/39
f 130/178/6 126/187/6 124/188/6 128/179/6
