# Blender v2.80 (sub 75) OBJ File: 'Book.blend'
# www.blender.org
mtllib Books.mtl
o Cube.003
v 0.804042 1.607180 0.123534
v -1.214204 1.021319 2.741700
v -2.951410 0.576977 -2.994312
v -3.114499 1.158293 -2.989952
v -4.963637 -0.007232 -0.371149
v -5.126725 0.574084 -0.366788
v 0.800792 1.733535 0.085698
v 0.703182 2.081456 0.088308
v -1.363282 1.552696 2.745686
v -1.228784 1.073287 2.742090
v -5.112715 0.524145 -0.367163
v -4.978217 0.044736 -0.370759
v -3.052270 1.051254 -3.029538
v -2.954660 0.703333 -3.032148
v 0.748376 1.627052 0.184016
v 0.611149 2.116186 0.187686
v -3.007076 0.596850 -2.933830
v -3.144303 1.085984 -2.930160
v -3.023379 0.654960 -2.933394
v -3.135735 1.055447 -2.930389
v 0.732073 1.685163 0.184452
v 0.619717 2.085649 0.187457
v 0.559221 2.164816 0.227769
v -3.027123 0.554949 -2.889441
v 0.702445 1.654306 0.223940
v 0.578516 2.096040 0.227253
v 0.722309 1.583500 0.223408
v -3.190212 1.136265 -2.885079
v -3.046988 0.625755 -2.888909
v -3.170917 1.067489 -2.885595
v -1.379647 1.548801 2.652870
v -1.245149 1.069392 2.649274
v -4.887481 0.070221 -0.374658
v 0.630764 1.634352 0.203058
v 0.506835 2.076087 0.206372
v -3.011568 0.635181 -2.820874
v -3.098231 1.065431 -2.858652
v 0.656457 1.664115 0.162276
v -1.290289 1.627892 2.632920
v -1.433368 1.587252 2.699506
v 0.570675 2.169216 0.069548
v -2.985874 0.664944 -2.861656
v -5.021979 0.549630 -0.371061
v -3.135496 1.076916 -2.817560
v 0.544101 2.064601 0.165280
v -3.484662 0.623467 -1.494718
v -3.186326 0.888504 -0.559075
v -3.062358 0.725489 0.698739
v -4.920180 0.208254 0.168677
v -2.424363 1.086572 1.533814
v -4.340032 0.550687 1.326354
v -0.371387 1.594809 1.104163
v -2.523546 0.990600 1.160253
v -1.615987 1.231968 2.926062
v -1.879070 1.038967 0.660381
v -0.463601 1.423415 2.348174
v 0.267998 1.642533 0.499728
v -2.847650 0.772541 0.510988
v -2.421884 0.875540 2.703731
v -0.903846 1.310633 1.476435
v -5.106953 0.250599 -1.734746
v -4.083323 0.523005 0.234514
v -2.977546 0.845497 -1.400495
v -1.711901 1.341952 1.494415
v 0.429689 1.941020 1.728319
v -0.250247 1.764312 -0.144236
v -2.350634 1.134051 -2.037831
v -3.972770 0.667957 -0.571055
v -4.456380 0.546811 -2.507920
vt 0.121403 0.225496
vt 0.118678 0.272749
vt 0.126064 0.218307
vt 0.581094 0.044099
vt 0.586534 0.062101
vt 0.577036 0.062101
vt 0.564382 0.062101
vt 0.501885 0.754848
vt 0.501885 0.062101
vt 0.511139 0.062101
vt 0.511139 0.754848
vt 0.525117 0.062101
vt 0.525117 0.754848
vt 0.564382 0.754848
vt 0.503312 0.044099
vt 0.487688 0.251986
vt 0.490518 0.272749
vt 0.482988 0.272749
vt 0.480490 0.435319
vt 0.970025 0.511651
vt 0.970026 0.044099
vt 0.985050 0.024487
vt 0.985050 0.792583
vt 0.334083 0.116186
vt 0.332793 0.272749
vt 0.496534 0.024487
vt 0.588296 0.024487
vt 0.315106 0.116186
vt 0.289708 0.116186
vt 0.277663 0.272749
vt 0.325358 0.272749
vt 0.323598 0.116186
vt 0.328925 0.116186
vt 0.115581 0.511651
vt 0.100795 0.511651
vt 0.100795 0.792583
vt 0.100795 0.024487
vt 0.339252 0.435319
vt 0.338405 0.272749
vt 0.330757 0.441848
vt 0.334500 0.435319
vt 0.596234 0.062101
vt 0.596234 0.754848
vt 0.586534 0.754848
vt 0.494486 0.754848
vt 0.494486 0.062101
vt 0.596234 0.044099
vt 0.985109 0.062101
vt 0.112714 0.754848
vt 0.112714 0.062101
vt 0.596234 0.024487
vt 0.594723 0.511651
vt 0.594723 0.792583
vt 0.275183 0.116186
vt 0.269642 0.116186
vt 0.271074 0.272749
vt 0.089846 0.530273
vt 0.008279 0.530273
vt 0.008279 0.272460
vt 0.089846 0.272460
vt 0.089846 0.777102
vt 0.008279 0.777102
vt 0.089846 0.025629
vt 0.008279 0.025629
vt 0.008279 0.021499
vt 0.089846 0.021499
vt 0.089846 0.781233
vt 0.008279 0.781233
vt 0.489173 0.511651
vt 0.489173 0.024487
vt 0.500271 0.511651
vt 0.508153 0.511651
vt 0.508153 0.792583
vt 0.494924 0.792583
vt 0.585008 0.511651
vt 0.585008 0.792583
vt 0.985038 0.062101
vt 0.985038 0.775018
vt 0.974710 0.790873
vt 0.597023 0.790873
vt 0.810247 0.127881
vt 0.810247 0.451880
vt 0.729002 0.451880
vt 0.729002 0.127881
vt 0.577036 0.733803
vt 0.958521 0.729004
vt 0.958521 0.974044
vt 0.788355 0.974044
vt 0.730496 0.974075
vt 0.603587 0.732722
vt 0.520265 0.975463
vt 0.958521 0.729004
vt 0.958521 0.974044
vt 0.788355 0.974044
vt 0.450919 0.640100
vt 0.330302 0.971144
vt 0.562462 0.977677
vt 0.450919 0.640100
vt 0.330302 0.971144
vt 0.562462 0.977677
vt 0.045468 0.972004
vt 0.205982 0.675362
vt 0.306578 0.978932
vt 0.450919 0.640100
vt 0.330302 0.971144
vt 0.562462 0.977677
vt 0.730496 0.974075
vt 0.520265 0.975463
vt 0.603587 0.732722
vn -0.4865 0.5980 0.6370
vn 0.2303 -0.2647 0.9364
vn 0.3181 0.8204 0.4751
vn -0.8515 -0.4292 -0.3011
vn -0.7970 0.2310 -0.5580
vn -0.5156 0.6891 -0.5091
vn -0.1011 0.1297 -0.9864
vn 0.7793 -0.3544 0.5167
vn -0.4801 -0.6999 -0.5288
vn -0.0453 -0.7964 -0.6030
vn 0.8212 -0.5587 0.1163
vn -0.0239 -0.1476 -0.9887
vn 0.9795 0.1277 -0.1557
vn 0.8578 0.4996 -0.1205
vn -0.9517 -0.0721 -0.2984
vn 0.2440 -0.5372 0.8073
vn -0.0675 0.5733 0.8166
vn -0.9376 0.3346 0.0942
vn -0.6252 -0.7757 0.0856
vn -0.6264 -0.7747 0.0858
vn -0.1639 -0.9855 0.0436
vn 0.2872 -0.8618 0.4181
vn 0.8054 -0.5423 0.2392
vn 0.3082 0.7129 0.6298
vn -0.9829 0.1827 -0.0224
vn -0.7445 -0.6669 -0.0287
vn 0.5304 -0.0501 0.8462
vn 0.4302 0.3070 0.8489
vn -0.2012 0.8795 0.4312
vn -0.6524 0.7558 0.0566
vn -0.1639 -0.8082 -0.5656
vn -0.8555 0.3937 -0.3363
vn -0.4730 0.6166 -0.6294
vn 0.4636 0.8735 0.1482
vn 0.6163 0.6704 0.4132
vn -0.5272 -0.7765 -0.3450
vn -0.9371 0.3360 0.0940
vn -0.3893 -0.8514 -0.3515
vn 0.6365 -0.4573 0.6211
vn 0.6474 -0.5670 0.5092
vn 0.2600 0.8139 0.5196
vn -0.7767 0.5294 -0.3411
vn 0.0954 0.4785 0.8729
vn 0.3338 -0.3711 0.8665
vn 0.0394 0.9967 -0.0706
vn -0.2701 0.9628 0.0072
vn 0.2701 -0.9628 -0.0072
usemtl Material.001
s 1
f 40/1/1 9/2/2 39/3/3
f 20/4/4 18/5/5 4/6/6 13/7/7
f 15/8/8 17/9/9 3/10/10 1/11/11
f 3/10/10 14/12/12 7/13/13 1/11/11
f 14/12/12 13/7/7 8/14/14 7/13/13
f 17/9/9 19/15/15 14/12/12 3/10/10
f 19/15/15 20/4/4 13/7/7 14/12/12
f 2/16/16 10/17/17 12/18/18 5/19/19
f 9/20/2 11/21/20 43/22/21 31/23/22
f 27/24/23 25/25/24 10/17/17 2/16/16
f 20/4/4 19/15/15 42/26/25 37/27/26
f 7/28/13 8/29/14 22/30/27 21/31/28
f 1/32/11 7/28/13 21/31/28 15/33/8
f 12/34/18 10/35/17 32/36/29 33/37/30
f 24/38/31 29/39/32 19/40/15 17/41/9
f 28/42/33 23/43/34 16/44/35 18/5/5
f 27/45/23 24/46/31 17/9/9 15/8/8
f 30/47/36 28/42/33 18/5/5 20/4/4
f 11/21/20 6/48/37 28/42/33 30/47/36
f 2/49/16 5/50/19 24/46/31 27/45/23
f 5/19/19 12/18/18 29/39/32 24/38/31
f 11/21/20 30/47/36 44/51/38 43/22/21
f 26/52/39 9/20/2 31/23/22 35/53/40
f 15/33/8 21/31/28 25/25/24 27/24/23
f 22/30/27 16/54/35 23/55/34 26/56/39
f 32/57/29 31/58/22 43/59/21 33/60/30
f 34/61/41 35/62/40 31/58/22 32/57/29
f 36/63/42 44/64/38 37/65/26 42/66/25
f 33/60/30 43/59/21 44/64/38 36/63/42
f 38/67/43 45/68/44 35/62/40 34/61/41
f 19/15/15 29/69/32 36/70/42 42/26/25
f 25/71/24 21/72/28 38/73/43 34/74/41
f 21/72/28 22/75/27 45/76/44 38/73/43
f 10/35/17 25/71/24 34/74/41 32/36/29
f 29/69/32 12/34/18 33/37/30 36/70/42
f 30/47/36 20/4/4 37/27/26 44/51/38
f 22/75/27 26/52/39 35/53/40 45/76/44
f 6/77/37 40/78/1 39/79/3 23/80/34 28/42/33
f 26/56/39 23/55/34 39/3/3 9/2/2
f 11/81/20 9/82/2 40/83/1 6/84/37
f 8/14/14 41/85/45 16/44/35
f 18/5/5 16/44/35 41/85/45 4/6/6
f 13/7/7 4/6/6 41/85/45 8/14/14
f 22/30/27 8/29/14 16/54/35
f 46/86/46 49/87/46 48/88/46
f 47/89/47 50/90/47 51/91/47
f 52/92/47 54/93/47 53/94/47
f 55/95/47 57/96/47 56/97/47
f 58/98/47 60/99/47 59/100/47
f 61/101/47 63/102/47 62/103/47
f 64/104/47 66/105/47 65/106/47
f 67/107/46 69/108/46 68/109/46
o Cube.002
v -1.682580 0.272885 2.326774
v 0.084428 0.853844 -0.468134
v 2.555209 0.021632 4.946644
v 2.525654 0.615514 5.051405
v 4.315424 0.602994 2.147537
v 4.285870 1.196876 2.252298
v -1.714621 0.384555 2.389311
v -1.732310 0.739998 2.452012
v 0.057413 1.396708 -0.372373
v 0.081786 0.906936 -0.458769
v 4.288409 1.145858 2.243298
v 4.312782 0.656085 2.156902
v 2.505479 0.488745 5.071882
v 2.523168 0.133302 5.009181
v -1.643740 0.320281 2.268492
v -1.668608 0.819990 2.356642
v 2.594049 0.069028 4.888363
v 2.569181 0.568736 4.976511
v 2.591095 0.128395 4.898835
v 2.570734 0.537539 4.971008
v -1.646694 0.379648 2.278965
v -1.667055 0.788792 2.351138
v -1.639845 0.889268 2.324373
v 2.620706 0.044535 4.835282
v -1.613890 0.367722 2.232372
v -1.636349 0.819005 2.311978
v -1.610290 0.295386 2.219611
v 2.591151 0.638418 4.940043
v 2.617106 0.116871 4.848042
v 2.594648 0.568155 4.927649
v 0.085298 1.382402 -0.283404
v 0.109672 0.892629 -0.369800
v 4.219812 0.648944 2.171155
v -1.537595 0.369368 2.244566
v -1.560054 0.820651 2.324173
v 2.572544 0.125682 4.785522
v 2.523586 0.546818 4.905103
v -1.566193 0.381359 2.291974
v -0.021266 1.422637 -0.242619
v 0.118151 1.443975 -0.324254
v -1.632830 0.862065 2.480563
v 2.543947 0.137674 4.832930
v 4.195438 1.138717 2.257552
v 2.550086 0.576966 4.865129
v -1.586554 0.790503 2.364148
v 2.860914 0.502099 3.459702
v 2.383311 0.811434 2.616562
v 2.165287 0.837650 1.361247
v 4.141372 0.882164 1.666387
v 1.349880 1.105917 0.655618
v 3.347180 1.208363 0.638330
v -0.690783 0.821622 1.297869
v 1.518708 0.984932 0.995405
v 0.374236 1.214460 -0.628634
v 0.957271 0.729191 1.531079
v -0.700941 0.909375 0.041828
v -1.234546 0.548809 1.935306
v 1.971098 0.777452 1.566748
v 1.271992 1.112636 -0.530609
v -0.145284 0.799389 0.845329
v 4.534709 0.652739 3.524436
v 3.246529 0.907888 1.714604
v 2.302242 0.556146 3.442204
v 0.603576 1.099568 0.787386
v -1.629507 0.985371 0.804778
v -0.706736 0.721760 2.559487
v 1.698567 0.505068 4.160149
v 3.194566 0.865696 2.537825
v 3.922817 0.577317 4.378067
vt 0.121403 0.225496
vt 0.118678 0.272749
vt 0.126064 0.218307
vt 0.581094 0.044099
vt 0.586534 0.062101
vt 0.577036 0.062101
vt 0.564382 0.062101
vt 0.501885 0.754848
vt 0.501885 0.062101
vt 0.511139 0.062101
vt 0.511139 0.754848
vt 0.525117 0.062101
vt 0.525117 0.754848
vt 0.564382 0.754848
vt 0.503312 0.044099
vt 0.487688 0.251986
vt 0.490518 0.272749
vt 0.482988 0.272749
vt 0.480490 0.435319
vt 0.970025 0.511651
vt 0.970026 0.044099
vt 0.985050 0.024487
vt 0.985050 0.792583
vt 0.334083 0.116186
vt 0.332793 0.272749
vt 0.496534 0.024487
vt 0.588296 0.024487
vt 0.315106 0.116186
vt 0.289708 0.116186
vt 0.277663 0.272749
vt 0.325358 0.272749
vt 0.323598 0.116186
vt 0.328925 0.116186
vt 0.115581 0.511651
vt 0.100795 0.511651
vt 0.100795 0.792583
vt 0.100795 0.024487
vt 0.339252 0.435319
vt 0.338405 0.272749
vt 0.330757 0.441848
vt 0.334500 0.435319
vt 0.596234 0.062101
vt 0.596234 0.754848
vt 0.586534 0.754848
vt 0.494486 0.754848
vt 0.494486 0.062101
vt 0.596234 0.044099
vt 0.985109 0.062101
vt 0.112714 0.754848
vt 0.112714 0.062101
vt 0.596234 0.024487
vt 0.594723 0.511651
vt 0.594723 0.792583
vt 0.275183 0.116186
vt 0.269642 0.116186
vt 0.271074 0.272749
vt 0.089846 0.530273
vt 0.008279 0.530273
vt 0.008279 0.272460
vt 0.089846 0.272460
vt 0.089846 0.777102
vt 0.008279 0.777102
vt 0.089846 0.025629
vt 0.008279 0.025629
vt 0.008279 0.021499
vt 0.089846 0.021499
vt 0.089846 0.781233
vt 0.008279 0.781233
vt 0.489173 0.511651
vt 0.489173 0.024487
vt 0.500271 0.511651
vt 0.508153 0.511651
vt 0.508153 0.792583
vt 0.494924 0.792583
vt 0.585008 0.511651
vt 0.585008 0.792583
vt 0.985038 0.062101
vt 0.985038 0.775018
vt 0.974710 0.790873
vt 0.597023 0.790873
vt 0.810247 0.127881
vt 0.810247 0.451880
vt 0.729002 0.451880
vt 0.729002 0.127881
vt 0.577036 0.733803
vt 0.958521 0.729004
vt 0.958521 0.974044
vt 0.788355 0.974044
vt 0.730496 0.974075
vt 0.603587 0.732722
vt 0.520265 0.975463
vt 0.958521 0.729004
vt 0.958521 0.974044
vt 0.788355 0.974044
vt 0.450919 0.640100
vt 0.330302 0.971144
vt 0.562462 0.977677
vt 0.450919 0.640100
vt 0.330302 0.971144
vt 0.562462 0.977677
vt 0.045468 0.972004
vt 0.205982 0.675362
vt 0.306578 0.978932
vt 0.450919 0.640100
vt 0.330302 0.971144
vt 0.562462 0.977677
vt 0.730496 0.974075
vt 0.520265 0.975463
vt 0.603587 0.732722
vn 0.1930 0.8265 -0.5288
vn -0.2472 -0.1592 -0.9558
vn -0.6148 0.7378 -0.2787
vn 0.9731 -0.1679 0.1575
vn 0.7456 0.3816 0.5463
vn 0.3308 0.7215 0.6082
vn 0.1740 -0.0175 0.9846
vn -0.6851 -0.4974 -0.5321
vn 0.7360 -0.5816 0.3464
vn 0.3659 -0.8282 0.4245
vn -0.6118 -0.7702 -0.1800
vn 0.1887 -0.3007 0.9348
vn -0.9435 -0.2335 0.2349
vn -0.9500 0.1578 0.2693
vn 0.9550 0.1969 0.2219
vn -0.1589 -0.4389 -0.8844
vn -0.2155 0.6958 -0.6851
vn 0.7664 0.6376 -0.0781
vn 0.8220 -0.4970 -0.2780
vn 0.8228 -0.4957 -0.2780
vn 0.4585 -0.8519 -0.2529
vn -0.0505 -0.8217 -0.5676
vn -0.6171 -0.7284 -0.2977
vn -0.5905 0.6683 -0.4524
vn 0.8708 0.4915 0.0022
vn 0.9140 -0.3765 -0.1509
vn -0.5863 -0.0754 -0.8065
vn -0.6044 0.2894 -0.7422
vn -0.1390 0.9572 -0.2538
vn 0.3700 0.9270 0.0609
vn 0.4768 -0.7933 0.3786
vn 0.7226 0.5904 0.3594
vn 0.3280 0.6193 0.7133
vn -0.7289 0.6819 0.0599
vn -0.8410 0.4890 -0.2315
vn 0.7822 -0.6051 0.1484
vn 0.7655 0.6388 -0.0776
vn 0.6766 -0.7214 0.1475
vn -0.5310 -0.5272 -0.6634
vn -0.4933 -0.6520 -0.5758
vn -0.5635 0.7587 -0.3269
vn 0.6064 0.6893 0.3963
vn -0.3460 0.5636 -0.7500
vn -0.3028 -0.3043 -0.9031
vn -0.3416 0.8989 0.2744
vn -0.0489 0.9836 0.1735
vn 0.0489 -0.9836 -0.1735
usemtl Material.001
s 1
f 109/110/48 78/111/49 108/112/50
f 89/113/51 87/114/52 73/115/53 82/116/54
f 84/117/55 86/118/56 72/119/57 70/120/58
f 72/119/57 83/121/59 76/122/60 70/120/58
f 83/121/59 82/116/54 77/123/61 76/122/60
f 86/118/56 88/124/62 83/121/59 72/119/57
f 88/124/62 89/113/51 82/116/54 83/121/59
f 71/125/63 79/126/64 81/127/65 74/128/66
f 78/129/49 80/130/67 112/131/68 100/132/69
f 96/133/70 94/134/71 79/126/64 71/125/63
f 89/113/51 88/124/62 111/135/72 106/136/73
f 76/137/60 77/138/61 91/139/74 90/140/75
f 70/141/58 76/137/60 90/140/75 84/142/55
f 81/143/65 79/144/64 101/145/76 102/146/77
f 93/147/78 98/148/79 88/149/62 86/150/56
f 97/151/80 92/152/81 85/153/82 87/114/52
f 96/154/70 93/155/78 86/118/56 84/117/55
f 99/156/83 97/151/80 87/114/52 89/113/51
f 80/130/67 75/157/84 97/151/80 99/156/83
f 71/158/63 74/159/66 93/155/78 96/154/70
f 74/128/66 81/127/65 98/148/79 93/147/78
f 80/130/67 99/156/83 113/160/85 112/131/68
f 95/161/86 78/129/49 100/132/69 104/162/87
f 84/142/55 90/140/75 94/134/71 96/133/70
f 91/139/74 85/163/82 92/164/81 95/165/86
f 101/166/76 100/167/69 112/168/68 102/169/77
f 103/170/88 104/171/87 100/167/69 101/166/76
f 105/172/89 113/173/85 106/174/73 111/175/72
f 102/169/77 112/168/68 113/173/85 105/172/89
f 107/176/90 114/177/91 104/171/87 103/170/88
f 88/124/62 98/178/79 105/179/89 111/135/72
f 94/180/71 90/181/75 107/182/90 103/183/88
f 90/181/75 91/184/74 114/185/91 107/182/90
f 79/144/64 94/180/71 103/183/88 101/145/76
f 98/178/79 81/143/65 102/146/77 105/179/89
f 99/156/83 89/113/51 106/136/73 113/160/85
f 91/184/74 95/161/86 104/162/87 114/185/91
f 75/186/84 109/187/48 108/188/50 92/189/81 97/151/80
f 95/165/86 92/164/81 108/112/50 78/111/49
f 80/190/67 78/191/49 109/192/48 75/193/84
f 77/123/61 110/194/92 85/153/82
f 87/114/52 85/153/82 110/194/92 73/115/53
f 82/116/54 73/115/53 110/194/92 77/123/61
f 91/139/74 77/138/61 85/163/82
f 115/195/93 118/196/93 117/197/93
f 116/198/94 119/199/94 120/200/94
f 121/201/94 123/202/94 122/203/94
f 124/204/94 126/205/94 125/206/94
f 127/207/94 129/208/94 128/209/94
f 130/210/94 132/211/94 131/212/94
f 133/213/94 135/214/94 134/215/94
f 136/216/93 138/217/93 137/218/93
o Cube.001
v -1.246636 0.003485 0.993236
v -1.242638 0.003485 -2.364044
v 3.741921 0.003485 0.993236
v 3.741921 0.607260 0.993236
v 3.737923 0.003485 -2.364044
v 3.737923 0.607260 -2.364044
v -1.246636 0.125744 1.042837
v -1.246636 0.487108 1.042837
v -1.242638 0.555392 -2.364044
v -1.242638 0.057461 -2.364044
v 3.737923 0.555392 -2.364044
v 3.737923 0.057461 -2.364044
v 3.741921 0.487108 1.042837
v 3.741921 0.125744 1.042837
v -1.246636 0.038091 0.916072
v -1.246635 0.546123 0.916072
v 3.741921 0.038091 0.916072
v 3.741921 0.546123 0.916072
v 3.741921 0.098446 0.916072
v 3.741921 0.514406 0.916072
v -1.246636 0.098446 0.916072
v -1.246636 0.514406 0.916072
v -1.242638 0.607260 0.862087
v 3.737923 0.003485 0.862087
v -1.242638 0.077026 0.862087
v -1.242638 0.535827 0.862087
v -1.242638 0.003485 0.862087
v 3.737923 0.607260 0.862087
v 3.737923 0.077026 0.862087
v 3.737923 0.535827 0.862087
v -1.171504 0.555392 -2.302095
v -1.171504 0.057461 -2.302095
v 3.666790 0.057461 -2.302095
v -1.171504 0.077026 0.831883
v -1.171504 0.535827 0.831883
v 3.666790 0.077026 0.831883
v 3.666790 0.514406 0.884327
v -1.171504 0.098446 0.884327
v -1.242638 0.607260 -2.219101
v -1.168150 0.607260 -2.364044
v -1.153280 0.607260 0.993236
v 3.666790 0.098446 0.884327
v 3.666790 0.555392 -2.302095
v 3.666790 0.535827 0.831883
v -1.171504 0.514406 0.884327
v 3.196513 0.203115 -0.489323
v 2.332412 0.384467 -0.994415
v 1.486619 0.203115 -1.930248
v 3.323317 0.203115 -2.721793
v 0.409838 0.384467 -2.136216
v 2.092309 0.384467 -3.217554
v -0.972095 0.316157 -0.479953
v 0.737799 0.316157 -1.920877
v -1.098899 0.316157 -2.712422
v 0.555061 0.185033 -1.135400
v -1.644787 0.185033 -1.536236
v -1.085517 0.185033 0.383977
v 1.432611 0.189065 -1.646611
v -0.279644 0.189065 -3.084730
v -0.745237 0.189065 -1.139678
v 4.644814 0.280587 -1.340729
v 2.587172 0.280587 -2.216005
v 2.710009 0.280587 -0.219781
v -0.154628 0.437616 -1.633298
v -2.036750 0.437616 -0.425980
v -0.318047 0.437616 0.596790
v 2.576806 0.384467 0.704310
v 2.977491 0.384467 -1.495565
v 4.577117 0.384467 -0.295066
vt 0.121403 0.225496
vt 0.118678 0.272749
vt 0.126064 0.218307
vt 0.581094 0.044099
vt 0.586534 0.062101
vt 0.577036 0.062101
vt 0.564382 0.062101
vt 0.501885 0.754848
vt 0.501885 0.062101
vt 0.511139 0.062101
vt 0.511139 0.754848
vt 0.525117 0.062101
vt 0.525117 0.754848
vt 0.564382 0.754848
vt 0.503312 0.044099
vt 0.487688 0.251986
vt 0.490518 0.272749
vt 0.482988 0.272749
vt 0.480490 0.435319
vt 0.970025 0.511651
vt 0.970026 0.044099
vt 0.985050 0.024487
vt 0.985050 0.792583
vt 0.334083 0.116186
vt 0.332793 0.272749
vt 0.496534 0.024487
vt 0.588296 0.024487
vt 0.315106 0.116186
vt 0.289708 0.116186
vt 0.277663 0.272749
vt 0.325358 0.272749
vt 0.323598 0.116186
vt 0.328925 0.116186
vt 0.115581 0.511651
vt 0.100795 0.511651
vt 0.100795 0.792583
vt 0.100795 0.024487
vt 0.339252 0.435319
vt 0.338405 0.272749
vt 0.330757 0.441848
vt 0.334500 0.435319
vt 0.596234 0.062101
vt 0.596234 0.754848
vt 0.586534 0.754848
vt 0.494486 0.754848
vt 0.494486 0.062101
vt 0.596234 0.044099
vt 0.985109 0.062101
vt 0.112714 0.754848
vt 0.112714 0.062101
vt 0.596234 0.024487
vt 0.594723 0.511651
vt 0.594723 0.792583
vt 0.275183 0.116186
vt 0.269642 0.116186
vt 0.271074 0.272749
vt 0.089846 0.530273
vt 0.008279 0.530273
vt 0.008279 0.272460
vt 0.089846 0.272460
vt 0.089846 0.777102
vt 0.008279 0.777102
vt 0.089846 0.025629
vt 0.008279 0.025629
vt 0.008279 0.021499
vt 0.089846 0.021499
vt 0.089846 0.781233
vt 0.008279 0.781233
vt 0.489173 0.511651
vt 0.489173 0.024487
vt 0.500271 0.511651
vt 0.508153 0.511651
vt 0.508153 0.792583
vt 0.494924 0.792583
vt 0.585008 0.511651
vt 0.585008 0.792583
vt 0.985038 0.062101
vt 0.985038 0.775018
vt 0.974710 0.790873
vt 0.597023 0.790873
vt 0.810247 0.127881
vt 0.810247 0.451880
vt 0.729002 0.451880
vt 0.729002 0.127881
vt 0.577036 0.733803
vt 0.958521 0.729004
vt 0.958521 0.974044
vt 0.788355 0.974044
vt 0.730496 0.974075
vt 0.603587 0.732722
vt 0.520265 0.975463
vt 0.958521 0.729004
vt 0.958521 0.974044
vt 0.788355 0.974044
vt 0.450919 0.640100
vt 0.330302 0.971144
vt 0.562462 0.977677
vt 0.450919 0.640100
vt 0.330302 0.971144
vt 0.562462 0.977677
vt 0.045468 0.972004
vt 0.205982 0.675362
vt 0.306578 0.978932
vt 0.450919 0.640100
vt 0.330302 0.971144
vt 0.562462 0.977677
vt 0.730496 0.974075
vt 0.520265 0.975463
vt 0.603587 0.732722
vn -0.1554 0.7118 -0.6850
vn -0.7039 -0.3103 -0.6388
vn -0.7058 0.7074 -0.0369
vn 0.9178 -0.1855 -0.3509
vn 0.9011 0.4337 -0.0026
vn 0.5641 0.7991 0.2080
vn 0.6658 0.1451 0.7318
vn -0.8365 -0.5480 0.0027
vn 0.8365 -0.5480 0.0027
vn 0.5755 -0.7589 0.3048
vn -0.5755 -0.7589 0.3048
vn 0.6664 -0.1428 0.7317
vn -0.6664 -0.1428 0.7317
vn -0.6736 0.2484 0.6961
vn 0.9178 0.1855 -0.3509
vn -0.5773 -0.5773 -0.5773
vn -0.5779 0.5761 -0.5780
vn 0.5779 0.5761 -0.5780
vn 0.5773 -0.5773 -0.5773
vn 0.5779 -0.5761 -0.5780
vn 0.2996 -0.9043 -0.3041
vn -0.2996 -0.9043 -0.3041
vn -0.6438 -0.7379 0.2022
vn -0.7729 0.6077 -0.1824
vn 0.7162 0.4412 -0.5407
vn 0.7162 -0.4412 -0.5407
vn -0.9178 -0.1855 -0.3509
vn -0.9178 0.1855 -0.3509
vn -0.2996 0.9043 -0.3041
vn 0.2996 0.9043 -0.3041
vn 0.6438 -0.7379 0.2022
vn 0.7729 0.6077 -0.1824
vn 0.6221 0.7168 0.3148
vn -0.6221 0.7168 0.3148
vn -0.8607 0.4819 0.1642
vn 0.7729 -0.6077 -0.1824
vn 0.5773 0.5773 -0.5773
vn 0.6886 -0.7171 -0.1077
vn -0.7729 -0.6077 -0.1824
vn -0.6886 -0.7171 -0.1077
vn -0.6886 0.7171 -0.1077
vn 0.6886 0.7171 -0.1077
vn -0.7162 0.4412 -0.5407
vn -0.7162 -0.4412 -0.5407
vn -0.1914 0.9485 0.2524
vn 0.0000 1.0000 0.0000
vn 0.0000 -1.0000 0.0000
usemtl Material.001
s 1
f 178/219/95 147/220/96 177/221/97
f 158/222/98 156/223/99 142/224/100 151/225/101
f 153/226/102 155/227/103 141/228/104 139/229/105
f 141/228/104 152/230/106 145/231/107 139/229/105
f 152/230/106 151/225/101 146/232/108 145/231/107
f 155/227/103 157/233/109 152/230/106 141/228/104
f 157/233/109 158/222/98 151/225/101 152/230/106
f 140/234/110 148/235/111 150/236/112 143/237/113
f 147/238/96 149/239/114 181/240/115 169/241/116
f 165/242/117 163/243/118 148/235/111 140/234/110
f 158/222/98 157/233/109 180/244/119 175/245/120
f 145/246/107 146/247/108 160/248/121 159/249/122
f 139/250/105 145/246/107 159/249/122 153/251/102
f 150/252/112 148/253/111 170/254/123 171/255/124
f 162/256/125 167/257/126 157/258/109 155/259/103
f 166/260/127 161/261/128 154/262/129 156/223/99
f 165/263/117 162/264/125 155/227/103 153/226/102
f 168/265/130 166/260/127 156/223/99 158/222/98
f 149/239/114 144/266/131 166/260/127 168/265/130
f 140/267/110 143/268/113 162/264/125 165/263/117
f 143/237/113 150/236/112 167/257/126 162/256/125
f 149/239/114 168/265/130 182/269/132 181/240/115
f 164/270/133 147/238/96 169/241/116 173/271/134
f 153/251/102 159/249/122 163/243/118 165/242/117
f 160/248/121 154/272/129 161/273/128 164/274/133
f 170/275/123 169/276/116 181/277/115 171/278/124
f 172/279/135 173/280/134 169/276/116 170/275/123
f 174/281/136 182/282/132 175/283/120 180/284/119
f 171/278/124 181/277/115 182/282/132 174/281/136
f 176/285/137 183/286/138 173/280/134 172/279/135
f 157/233/109 167/287/126 174/288/136 180/244/119
f 163/289/118 159/290/122 176/291/137 172/292/135
f 159/290/122 160/293/121 183/294/138 176/291/137
f 148/253/111 163/289/118 172/292/135 170/254/123
f 167/287/126 150/252/112 171/255/124 174/288/136
f 168/265/130 158/222/98 175/245/120 182/269/132
f 160/293/121 164/270/133 173/271/134 183/294/138
f 144/295/131 178/296/95 177/297/97 161/298/128 166/260/127
f 164/274/133 161/273/128 177/221/97 147/220/96
f 149/299/114 147/300/96 178/301/95 144/302/131
f 146/232/108 179/303/139 154/262/129
f 156/223/99 154/262/129 179/303/139 142/224/100
f 151/225/101 142/224/100 179/303/139 146/232/108
f 160/248/121 146/247/108 154/272/129
f 184/304/140 187/305/140 186/306/140
f 185/307/141 188/308/141 189/309/141
f 190/310/141 192/311/141 191/312/141
f 193/313/141 195/314/141 194/315/141
f 196/316/141 198/317/141 197/318/141
f 199/319/141 201/320/141 200/321/141
f 202/322/141 204/323/141 203/324/141
f 205/325/140 207/326/140 206/327/140
