# Blender v2.80 (sub 75) OBJ File: 'monitor.blend'
# www.blender.org
mtllib monitor.mtl
o Monitor_Circle.001
v 0.000000 0.000000 -0.250000
v -0.048773 0.000000 -0.245196
v -0.095671 0.000000 -0.230970
v -0.138893 0.000000 -0.207867
v -0.176777 0.000000 -0.176777
v -0.207867 0.000000 -0.138893
v -0.230970 0.000000 -0.095671
v -0.245196 0.000000 -0.048773
v -0.250000 0.000000 -0.000000
v -0.245196 0.000000 0.048773
v -0.230970 0.000000 0.095671
v -0.207867 0.000000 0.138893
v -0.176777 0.000000 0.176777
v -0.138893 0.000000 0.207867
v -0.095671 0.000000 0.230970
v -0.048773 0.000000 0.245196
v 0.000000 0.000000 0.250000
v 0.048773 0.000000 0.245196
v 0.095671 0.000000 0.230970
v 0.138893 0.000000 0.207867
v 0.176777 0.000000 0.176777
v 0.207868 0.000000 0.138892
v 0.230970 0.000000 0.095671
v 0.245196 0.000000 0.048772
v 0.250000 0.000000 -0.000000
v 0.245196 0.000000 -0.048773
v 0.230970 0.000000 -0.095671
v 0.207867 0.000000 -0.138893
v 0.176776 0.000000 -0.176777
v 0.138892 0.000000 -0.207868
v 0.095671 0.000000 -0.230970
v 0.048772 0.000000 -0.245196
v -0.000000 0.033218 -0.234209
v -0.045692 0.033218 -0.229709
v -0.089628 0.033218 -0.216381
v -0.130120 0.033218 -0.194738
v -0.165611 0.033218 -0.165611
v -0.194738 0.033218 -0.130120
v -0.216381 0.033218 -0.089628
v -0.229709 0.033218 -0.045692
v -0.234209 0.033218 -0.000000
v -0.229709 0.033218 0.045692
v -0.216381 0.033218 0.089628
v -0.194738 0.033218 0.130120
v -0.165611 0.033218 0.165611
v -0.130120 0.033218 0.194738
v -0.089628 0.033218 0.216381
v -0.045692 0.033218 0.229709
v 0.000000 0.033218 0.234209
v 0.045692 0.033218 0.229709
v 0.089628 0.033218 0.216381
v 0.130120 0.033218 0.194738
v 0.165611 0.033218 0.165611
v 0.194738 0.033218 0.130120
v 0.216381 0.033218 0.089628
v 0.229709 0.033218 0.045692
v 0.234209 0.033218 -0.000000
v 0.229709 0.033218 -0.045692
v 0.216381 0.033218 -0.089628
v 0.194738 0.033218 -0.130120
v 0.165611 0.033218 -0.165611
v 0.130119 0.033218 -0.194738
v 0.089628 0.033218 -0.216381
v 0.045692 0.033218 -0.229709
v 0.050000 0.290796 -0.050000
v 0.050000 0.033290 -0.050000
v 0.050000 0.290796 0.050000
v 0.050000 0.033290 0.050000
v -0.008646 0.290796 -0.050000
v -0.050000 0.033290 -0.050000
v -0.008646 0.290796 0.050000
v -0.050000 0.033290 0.050000
v -0.008646 0.290796 -0.050000
v -0.008646 0.290796 0.050000
v 0.048488 0.357182 -0.050000
v 0.048488 0.357182 0.050000
v 0.077923 0.198231 0.550000
v 0.077923 0.838230 0.550000
v 0.077923 0.198231 -0.550000
v 0.077923 0.838230 -0.550000
v 0.137923 0.198231 0.550000
v 0.137923 0.838230 0.550000
v 0.137923 0.198231 -0.550000
v 0.137923 0.838230 -0.550000
v 0.049194 0.289880 -0.507246
v 0.049194 0.289880 0.478060
v 0.049194 0.765587 0.478060
v 0.049194 0.765587 -0.507246
v 0.116011 0.806066 -0.494717
v 0.116011 0.230395 -0.494717
v 0.116011 0.230395 0.494717
v 0.116011 0.806066 0.494717
v 0.135026 0.811159 0.496283
v 0.135026 0.811159 -0.494884
v 0.135026 0.229152 -0.494884
v 0.135026 0.229152 0.496283
vt 0.007055 -0.007964
vt 0.007055 -0.007964
vt 0.007055 -0.007964
vt 0.007055 -0.007964
vt 0.007055 -0.007964
vt 0.007055 -0.007964
vt 0.007055 -0.007964
vt 0.007055 -0.007964
vt 0.007055 -0.007964
vt 0.007055 -0.007964
vt 0.007055 -0.007964
vt 0.007055 -0.007964
vt 0.007055 -0.007964
vt 0.007055 -0.007964
vt 0.007055 -0.007964
vt 0.007055 -0.007964
vt 0.007055 -0.007964
vt 0.007055 -0.007964
vt 0.007055 -0.007964
vt 0.007055 -0.007964
vt 0.007055 -0.007964
vt 0.007055 -0.007964
vt 0.007055 -0.007964
vt 0.007055 -0.007964
vt 0.007055 -0.007964
vt 0.007055 -0.007964
vt 0.007055 -0.007964
vt 0.007055 -0.007964
vt 0.007055 -0.007964
vt 0.007055 -0.007964
vt 0.007055 -0.007964
vt 0.007055 -0.007964
vt 0.007055 -0.007964
vt 0.007055 -0.007964
vt 0.007055 -0.007964
vt 0.007055 -0.007964
vt 0.007055 -0.007964
vt 0.007055 -0.007964
vt 0.007055 -0.007964
vt 0.007055 -0.007964
vt 0.007055 -0.007964
vt 0.007055 -0.007964
vt 0.007055 -0.007964
vt 0.007055 -0.007964
vt 0.007055 -0.007964
vt 0.007055 -0.007964
vt 0.007055 -0.007964
vt 0.007055 -0.007964
vt 0.007055 -0.007964
vt 0.007055 -0.007964
vt 0.007055 -0.007964
vt 0.007055 -0.007964
vt 0.007055 -0.007964
vt 0.007055 -0.007964
vt 0.007055 -0.007964
vt 0.007055 -0.007964
vt 0.007055 -0.007964
vt 0.007055 -0.007964
vt 0.007055 -0.007964
vt 0.007055 -0.007964
vt 0.007055 -0.007964
vt 0.007055 -0.007964
vt 0.007055 -0.007964
vt 0.007055 -0.007964
vt -0.035964 -0.052587
vt 1.046547 -0.052587
vt 1.046547 1.029925
vt -0.035965 1.029925
vt 0.550000 0.041970
vt 0.569240 0.019258
vt 0.579761 0.077145
vt 0.549232 0.046698
vt 0.515783 0.078681
vt 0.546937 0.048084
vt -0.098175 -0.098264
vt 1.147560 -0.098264
vt 1.147560 1.147471
vt -0.098175 1.147471
vt 0.265559 0.021894
vt 0.993758 0.006695
vt 0.579788 0.078825
vt 0.515811 0.080361
vt 0.987828 1.020066
vt -0.014479 1.013638
vt 0.981538 0.005344
vt 0.580396 0.016269
vt 0.991573 1.034492
vt 0.002924 0.996223
vt 0.005553 0.968310
vt 0.993936 0.993044
vt 0.995579 1.042437
vt -0.005053 1.008272
vt 0.989815 1.026505
vt 0.975681 0.019571
vt 0.980764 0.014667
vt 0.994947 1.031626
vt 0.010943 0.009432
vt 0.981468 0.005344
vt 0.977539 0.014766
vt 0.018569 0.022377
vt 0.079969 0.058362
vt 0.618077 0.425446
vt -0.003242 0.996977
vt -0.009577 1.002368
vt 0.013327 0.019117
vt 0.007090 0.014074
vn 0.0000 -1.0000 0.0000
vn 0.0000 1.0000 -0.0000
vn 0.0886 0.4276 0.8996
vn -0.5735 0.4276 -0.6988
vn 0.2624 0.4276 -0.8650
vn 0.2624 0.4276 0.8650
vn -0.6988 0.4276 -0.5735
vn 0.0886 0.4276 -0.8996
vn 0.4261 0.4276 0.7972
vn -0.7972 0.4276 -0.4261
vn 0.5735 0.4276 0.6988
vn -0.8650 0.4276 -0.2624
vn 0.6988 0.4276 0.5735
vn -0.8996 0.4276 -0.0886
vn 0.7972 0.4276 0.4261
vn -0.8996 0.4276 0.0886
vn 0.8650 0.4276 0.2624
vn -0.8650 0.4276 0.2624
vn 0.8996 0.4276 0.0886
vn -0.7972 0.4276 0.4261
vn 0.8996 0.4276 -0.0886
vn -0.6988 0.4276 0.5735
vn 0.8650 0.4276 -0.2624
vn -0.5735 0.4276 0.6988
vn 0.7972 0.4276 -0.4261
vn -0.4261 0.4276 0.7972
vn -0.0886 0.4276 -0.8996
vn 0.6988 0.4276 -0.5735
vn -0.2624 0.4276 0.8650
vn -0.2624 0.4276 -0.8650
vn 0.5735 0.4276 -0.6988
vn -0.0886 0.4276 0.8996
vn -0.4261 0.4276 -0.7972
vn 0.4261 0.4276 -0.7972
vn 0.0000 0.0000 1.0000
vn -0.9873 0.1586 0.0000
vn 1.0000 0.0000 0.0000
vn 0.0000 0.0000 -1.0000
vn -0.7579 0.6523 0.0000
vn -0.8300 0.0000 -0.5577
vn 0.2587 -0.9660 0.0000
vn -1.0000 0.0000 0.0000
vn -0.9287 0.0000 0.3709
vn -0.9299 0.3678 0.0000
vn -0.9542 -0.2991 0.0000
vn 0.0088 0.0000 1.0000
vn 0.0821 0.0000 -0.9966
vn 0.0652 0.9979 0.0000
vn 0.9956 0.0933 0.0000
vn 0.9985 0.0000 -0.0538
vn 0.9986 0.0000 0.0525
vn 0.9943 -0.1064 0.0000
usemtl Material
s off
f 2/1/1 1/2/1 32/3/1 31/4/1 30/5/1 29/6/1 28/7/1 27/8/1 26/9/1 25/10/1 24/11/1 23/12/1 22/13/1 21/14/1 20/15/1 19/16/1 18/17/1 17/18/1 16/19/1 15/20/1 14/21/1 13/22/1 12/23/1 11/24/1 10/25/1 9/26/1 8/27/1 7/28/1 6/29/1 5/30/1 4/31/1 3/32/1
f 34/33/2 35/34/2 36/35/2 37/36/2 38/37/2 39/38/2 40/39/2 41/40/2 42/41/2 43/42/2 44/43/2 45/44/2 46/45/2 47/46/2 48/47/2 49/48/2 50/49/2 51/50/2 52/51/2 53/52/2 54/53/2 55/54/2 56/55/2 57/56/2 58/57/2 59/58/2 60/59/2 61/60/2 62/61/2 63/62/2 64/63/2 33/64/2
f 17/18/3 18/17/3 50/49/3 49/48/3
f 4/31/4 5/30/4 37/36/4 36/35/4
f 31/4/5 32/3/5 64/63/5 63/62/5
f 18/17/6 19/16/6 51/50/6 50/49/6
f 5/30/7 6/29/7 38/37/7 37/36/7
f 32/3/8 1/2/8 33/64/8 64/63/8
f 19/16/9 20/15/9 52/51/9 51/50/9
f 6/29/10 7/28/10 39/38/10 38/37/10
f 20/15/11 21/14/11 53/52/11 52/51/11
f 7/28/12 8/27/12 40/39/12 39/38/12
f 21/14/13 22/13/13 54/53/13 53/52/13
f 8/27/14 9/26/14 41/40/14 40/39/14
f 22/13/15 23/12/15 55/54/15 54/53/15
f 9/26/16 10/25/16 42/41/16 41/40/16
f 23/12/17 24/11/17 56/55/17 55/54/17
f 10/25/18 11/24/18 43/42/18 42/41/18
f 24/11/19 25/10/19 57/56/19 56/55/19
f 11/24/20 12/23/20 44/43/20 43/42/20
f 25/10/21 26/9/21 58/57/21 57/56/21
f 12/23/22 13/22/22 45/44/22 44/43/22
f 26/9/23 27/8/23 59/58/23 58/57/23
f 13/22/24 14/21/24 46/45/24 45/44/24
f 27/8/25 28/7/25 60/59/25 59/58/25
f 14/21/26 15/20/26 47/46/26 46/45/26
f 1/2/27 2/1/27 34/33/27 33/64/27
f 28/7/28 29/6/28 61/60/28 60/59/28
f 15/20/29 16/19/29 48/47/29 47/46/29
f 2/1/30 3/32/30 35/34/30 34/33/30
f 29/6/31 30/5/31 62/61/31 61/60/31
f 16/19/32 17/18/32 49/48/32 48/47/32
f 3/32/33 4/31/33 36/35/33 35/34/33
f 30/5/34 31/4/34 63/62/34 62/61/34
f 65/65/2 69/66/2 71/67/2 67/68/2
f 68/69/35 67/70/35 71/71/35 72/72/35
f 72/72/36 71/71/36 69/73/36 70/74/36
f 70/75/1 66/76/1 68/77/1 72/78/1
f 66/79/37 65/80/37 67/70/37 68/69/37
f 70/74/38 69/73/38 65/80/38 66/79/38
f 69/73/35 71/71/35 74/81/35 73/82/35
f 73/82/39 74/81/39 76/83/39 75/84/39
f 65/80/38 69/73/38 75/85/38
f 71/71/35 67/70/35 76/86/35
f 80/87/40 79/88/40 85/89/40 88/90/40
f 79/88/38 80/87/38 84/91/38 83/92/38
f 94/93/41 93/94/41 92/95/41 89/96/41
f 81/97/35 82/98/35 78/99/35 77/100/35
f 79/88/1 83/92/1 81/97/1 77/100/1
f 84/91/2 80/87/2 78/99/2 82/98/2
f 86/101/42 87/102/42 88/90/42 85/89/42
f 77/100/43 78/99/43 87/102/43 86/101/43
f 78/99/44 80/87/44 88/90/44 87/102/44
f 79/88/45 77/100/45 86/101/45 85/89/45
f 95/103/46 94/93/46 89/96/46 90/104/46
f 93/94/47 96/105/47 91/106/47 92/95/47
f 96/105/48 95/103/48 90/104/48 91/106/48
f 81/97/49 83/92/49 95/103/49 96/105/49
f 82/98/50 81/97/50 96/105/50 93/94/50
f 83/92/51 84/91/51 94/93/51 95/103/51
f 84/91/52 82/98/52 93/94/52 94/93/52
o Pantalla_Circle.002
v 0.116011 0.806066 -0.494717
v 0.116011 0.230395 -0.494717
v 0.116011 0.230395 0.494717
v 0.116011 0.806066 0.494717
vt 0.375000 0.500000
vt 0.625000 0.500000
vt 0.625000 0.750000
vt 0.375000 0.750000
vn 1.0000 0.0000 0.0000
usemtl Material.001
s off
f 98/107/53 97/108/53 100/109/53 99/110/53
