# Blender v2.80 (sub 75) OBJ File: ''
# www.blender.org
mtllib ExcaliburMorgan.mtl
o _0_0_node__0_0
v 0.045080 0.000000 -0.386425
v -0.045085 0.000000 -0.386425
v 0.000000 0.062709 -0.369760
v 0.000000 0.472608 0.310514
v -0.083027 -0.000000 0.360671
v 0.000000 0.416293 0.411282
v 0.000000 0.133243 0.360671
v 0.079312 -0.000000 0.360671
v 0.000000 0.416293 0.411282
v 0.000000 -0.000000 2.331860
v 0.000000 0.088534 2.160315
v -0.083027 -0.000000 0.360671
v 0.000000 0.133243 0.360671
v 0.000000 -0.000000 2.331860
v 0.079312 -0.000000 0.360671
v 0.000000 0.088534 2.160315
v 0.000000 0.133243 0.360671
v 0.045080 0.000000 -0.386425
v 0.000000 0.062709 -0.369760
v 0.062551 -0.000000 0.246833
v 0.000000 0.079322 0.252017
v -0.045085 0.000000 -0.386425
v -0.058598 -0.000000 0.246833
v 0.000000 0.062709 -0.369760
v 0.000000 0.079322 0.252017
v 0.079312 -0.000000 0.360671
v 0.000000 0.472608 0.310514
v 0.000000 0.416293 0.411282
v 0.000000 0.079322 0.252017
v 0.062551 -0.000000 0.246833
v -0.083027 -0.000000 0.360671
v 0.000000 0.133243 0.360671
v 0.000000 0.416293 0.411282
v 0.000000 -0.062708 -0.369760
v -0.083027 -0.000000 0.360671
v 0.000000 -0.472607 0.310514
v 0.000000 -0.416293 0.411282
v 0.000000 -0.133242 0.360671
v 0.000000 -0.416293 0.411282
v 0.079312 -0.000000 0.360671
v 0.000000 -0.133242 0.360671
v 0.000000 -0.088534 2.160315
v 0.000000 -0.088534 2.160315
v 0.000000 -0.133242 0.360671
v 0.000000 -0.079321 0.252017
v 0.000000 -0.062708 -0.369760
v 0.000000 -0.062708 -0.369760
v 0.000000 -0.079321 0.252017
v 0.079312 -0.000000 0.360671
v 0.000000 -0.079321 0.252017
v 0.062551 -0.000000 0.246833
v 0.000000 -0.472607 0.310514
v 0.000000 -0.416293 0.411282
v -0.083027 -0.000000 0.360671
v 0.000000 -0.416293 0.411282
v 0.000000 -0.133242 0.360671
v 0.000000 0.079322 0.252017
v 0.000000 -0.079321 0.252017
v -0.058598 -0.000000 0.246833
v -0.058598 -0.000000 0.246833
vt 0.004660 0.827851
vt 0.993213 0.827851
vt 0.888557 0.935881
vt 0.888557 0.719832
vt 0.004660 0.990432
vt 0.004660 0.665281
vt 0.004660 0.827851
vt 0.888557 0.935881
vt 0.993213 0.827851
vt 0.004660 0.990432
vt 0.888557 0.719832
vt 0.004660 0.665281
vt 0.551545 0.156190
vt 0.985830 0.156190
vt 0.970505 0.271533
vt 0.970505 0.040865
vt 0.546778 0.302088
vt 0.546778 0.010310
vt 0.551545 0.156190
vt 0.970505 0.271533
vt 0.985830 0.156190
vt 0.546778 0.302088
vt 0.970505 0.040865
vt 0.546778 0.010310
vt 0.503094 0.410876
vt 0.069678 0.319313
vt 0.011047 0.529135
vt 0.420504 0.661974
vt 0.503094 0.686748
vt 0.503094 0.410876
vt 0.011047 0.529135
vt 0.069678 0.319313
vt 0.420504 0.661974
vt 0.503094 0.686748
vt 0.503094 0.410876
vt 0.995130 0.529136
vt 0.936500 0.319314
vt 0.585672 0.661974
vt 0.503094 0.686748
vt 0.503094 0.410876
vt 0.585672 0.661974
vt 0.503094 0.686748
vt 0.995130 0.529136
vt 0.936500 0.319314
vt 0.458128 0.176913
vt 0.458128 0.375306
vt 0.527123 0.276104
vt 0.389144 0.276104
vt 0.352743 0.110922
vt 0.268236 0.007969
vt 0.532256 0.110922
vt 0.268236 0.213882
vt 0.352743 0.110922
vt 0.532256 0.110922
vt 0.183735 0.110922
vt 0.004222 0.110922
vt 0.268236 0.007969
vt 0.268236 0.213882
vt 0.004222 0.110922
vt 0.183735 0.110922
vn -0.9958 0.0813 0.0419
vn -0.9958 -0.0813 0.0419
vn -0.8486 0.5288 0.0131
vn -0.8486 -0.5288 0.0131
vn 0.9962 0.0777 0.0401
vn 0.8592 0.5114 0.0127
vn 0.9962 -0.0777 0.0401
vn 0.8592 -0.5114 0.0127
vn 0.8089 0.5875 -0.0223
vn 0.8089 -0.5875 -0.0223
vn 0.7846 0.6198 -0.0166
vn 0.7846 -0.6198 -0.0166
vn -0.8096 0.5867 -0.0173
vn -0.8037 0.5948 -0.0159
vn -0.8096 -0.5867 -0.0173
vn -0.8037 -0.5948 -0.0159
vn -0.9779 0.1826 0.1021
vn -0.8204 0.0841 -0.5655
vn -0.7874 0.5928 -0.1690
vn 0.9797 0.1748 0.0977
vn 0.8324 0.0815 -0.5481
vn 0.7764 0.6197 -0.1143
vn -0.9779 -0.1826 0.1021
vn -0.8204 -0.0841 -0.5655
vn -0.7874 -0.5928 -0.1690
vn 0.7764 -0.6198 -0.1143
vn 0.8324 -0.0815 -0.5481
vn 0.9797 -0.1748 0.0977
vn 0.0000 0.2568 -0.9665
vn 0.0000 -0.2568 -0.9665
vn -0.2836 -0.1688 0.9440
vn 0.2718 -0.1694 0.9473
vn -0.2836 0.1688 0.9440
vn 0.2718 0.1694 0.9473
usemtl saber_wpn_png
s off
f 12/1/1 10/2/1 11/3/1
f 12/1/2 42/4/2 10/2/2
f 12/1/3 11/3/3 13/5/3
f 12/1/4 41/6/4 42/4/4
f 15/7/5 16/8/5 14/9/5
f 15/7/6 17/10/6 16/8/6
f 15/7/7 14/9/7 43/11/7
f 15/7/8 43/11/8 44/12/8
f 20/13/9 18/14/9 19/15/9
f 20/13/10 46/16/10 18/14/10
f 20/13/11 19/15/11 21/17/11
f 20/13/12 45/18/12 46/16/12
f 23/19/13 24/20/13 22/21/13
f 23/19/14 25/22/14 24/20/14
f 23/19/15 22/21/15 47/23/15
f 23/19/16 47/23/16 48/24/16
f 5/25/17 6/26/17 4/27/17
f 5/25/18 4/27/18 57/28/18
f 5/25/19 57/28/19 60/29/19
f 26/30/20 27/31/20 28/32/20
f 26/30/21 29/33/21 27/31/21
f 26/30/22 30/34/22 29/33/22
f 35/35/23 36/36/23 37/37/23
f 35/35/24 58/38/24 36/36/24
f 35/35/25 59/39/25 58/38/25
f 49/40/26 50/41/26 51/42/26
f 49/40/27 52/43/27 50/41/27
f 49/40/28 53/44/28 52/43/28
f 1/45/29 2/46/29 3/47/29
f 1/45/30 34/48/30 2/46/30
f 7/49/31 8/50/31 9/51/31
f 31/52/32 32/53/32 33/54/32
f 38/55/33 39/56/33 40/57/33
f 54/58/34 55/59/34 56/60/34
