# Blender v2.80 (sub 75) OBJ File: ''
# www.blender.org
mtllib Kanshou.mtl
o _0_0_node.001__0_0.001
v -0.038833 -0.001138 1.714725
v -0.071013 -0.035911 0.499837
v 0.000000 -0.231033 1.170794
v -0.111803 -0.037640 0.475610
v -0.077647 -0.003008 0.207020
v 0.000000 -0.111822 0.286375
v 0.000000 0.104292 0.370795
v 0.000000 0.069428 0.232068
v 0.000000 0.094163 -0.216767
v 0.000000 0.141437 -0.304563
v -0.092467 -0.006692 -0.434407
v -0.077647 -0.003008 0.207020
v 0.000000 0.069428 0.232068
v 0.000000 -0.061564 -0.361574
v 0.000000 -0.077353 0.184224
v 0.000000 -0.094938 -0.417402
v 0.000000 -0.011500 -0.480070
v 0.000000 0.126679 -0.405189
v 0.000000 0.185336 0.509245
v 0.000000 0.132924 0.654160
v 0.000000 -0.281643 0.303345
v 0.000000 -0.126311 1.914075
v 0.000000 0.172184 1.712980
v 0.000000 0.112452 1.183000
v 0.000000 -0.008529 2.119975
v 0.000000 0.209702 1.827110
v 0.000000 -0.237536 0.457936
v 0.000000 -0.077353 0.184224
v 0.000000 0.201239 2.305785
v 0.038832 -0.001138 1.714725
v 0.000000 -0.231033 1.170794
v 0.071012 -0.035911 0.499837
v 0.111803 -0.037640 0.475610
v 0.000000 -0.111822 0.286375
v 0.077647 -0.003008 0.207020
v 0.000000 0.104292 0.370795
v 0.000000 0.069428 0.232068
v 0.000000 0.094163 -0.216767
v 0.092467 -0.006692 -0.434407
v 0.000000 0.141437 -0.304563
v 0.077647 -0.003008 0.207020
v 0.000000 -0.061564 -0.361574
v 0.000000 -0.094938 -0.417402
v 0.000000 -0.011500 -0.480070
v 0.000000 0.126679 -0.405189
v 0.000000 0.185336 0.509245
v 0.000000 -0.281643 0.303345
v 0.000000 -0.126311 1.914075
v 0.000000 0.172184 1.712980
v 0.000000 0.112452 1.183000
v 0.000000 -0.008529 2.119975
v 0.000000 0.209702 1.827110
v 0.000000 -0.237536 0.457936
v 0.000000 0.132924 0.654160
v 0.000000 -0.077353 0.184224
v 0.000000 0.201239 2.305785
v 0.000000 -0.077353 0.184224
v 0.000000 0.069428 0.232068
vt 0.655400 0.276247
vt 0.137414 0.242767
vt 0.430722 0.076491
vt 0.428691 0.353139
vt 0.742850 0.164597
vt 0.664943 0.417596
vt 0.835418 0.266227
vt 0.710552 0.452319
vt 0.915999 0.448819
vt 0.127360 0.092232
vt 0.200295 0.385298
vt 0.127085 0.241497
vt 0.148661 0.431541
vt 0.060069 0.037051
vt 0.089631 0.362433
vt 0.053637 0.178146
vt 0.019803 0.270935
vt 0.030482 0.332703
vt 0.010084 0.207539
vt 0.655400 0.276247
vt 0.430722 0.076491
vt 0.137414 0.242767
vt 0.742850 0.164597
vt 0.428691 0.353139
vt 0.835418 0.266227
vt 0.664943 0.417596
vt 0.915999 0.448819
vt 0.710552 0.452319
vt 0.127360 0.092232
vt 0.200295 0.385298
vt 0.127085 0.241497
vt 0.060069 0.037051
vt 0.148661 0.431541
vt 0.053637 0.178146
vt 0.089631 0.362433
vt 0.019803 0.270935
vt 0.010084 0.207539
vt 0.030482 0.332703
vt 0.260090 0.877921
vt 0.340674 0.952607
vt 0.308165 0.987614
vt 0.497587 0.880650
vt 0.270908 0.976685
vt 0.287057 0.837287
vt 0.243182 0.877588
vt 0.266386 0.812573
vt 0.506861 0.934291
vt 0.489146 0.825596
vt 0.260090 0.877921
vt 0.308165 0.987614
vt 0.340674 0.952607
vt 0.270908 0.976685
vt 0.497587 0.880650
vt 0.243182 0.877588
vt 0.287057 0.837287
vt 0.266386 0.812573
vt 0.506861 0.934291
vt 0.489146 0.825596
vn -0.9700 -0.2410 0.0326
vn -0.9249 0.3800 0.0136
vn -0.9688 -0.2455 0.0346
vn -0.9756 0.2183 -0.0246
vn -0.9830 -0.1596 0.0913
vn -0.9735 0.2174 -0.0715
vn -0.9922 -0.0829 0.0936
vn -0.9838 0.1795 0.0032
vn -0.9430 -0.3328 0.0030
vn -0.9264 0.3763 0.0146
vn -0.4705 -0.3353 0.8162
vn -0.9479 0.2996 0.1084
vn -0.5105 0.1277 0.8504
vn -0.8588 -0.4927 0.1406
vn -0.8433 0.4638 -0.2715
vn -0.8683 -0.0493 -0.4936
vn -0.7933 0.6084 -0.0224
vn -0.6369 0.7477 -0.1879
vn -0.7351 -0.6542 -0.1778
vn -0.7075 -0.6696 -0.2260
vn 0.9700 -0.2410 0.0326
vn 0.9688 -0.2455 0.0346
vn 0.9249 0.3800 0.0136
vn 0.9830 -0.1596 0.0913
vn 0.9756 0.2183 -0.0246
vn 0.9922 -0.0829 0.0936
vn 0.9735 0.2174 -0.0715
vn 0.9838 0.1795 0.0032
vn 0.9430 -0.3328 0.0030
vn 0.9264 0.3763 0.0146
vn 0.4705 -0.3353 0.8162
vn 0.8588 -0.4927 0.1406
vn 0.9479 0.2996 0.1084
vn 0.5105 0.1277 0.8504
vn 0.8683 -0.0493 -0.4936
vn 0.8433 0.4638 -0.2715
vn 0.7351 -0.6542 -0.1778
vn 0.7075 -0.6696 -0.2260
vn 0.7933 0.6084 -0.0224
vn 0.6369 0.7477 -0.1879
vn -0.9009 0.3821 0.2057
vn -0.7514 0.6597 0.0136
vn -0.8100 0.5802 -0.0851
vn -0.5201 -0.8539 0.0169
vn -0.3789 0.4409 -0.8137
vn -0.6745 -0.6337 0.3788
vn -0.3920 -0.5525 -0.7356
vn -0.6885 0.7242 0.0399
vn -0.6946 -0.7191 -0.0208
vn 0.9009 0.3821 0.2057
vn 0.8100 0.5802 -0.0851
vn 0.7514 0.6597 0.0136
vn 0.3789 0.4409 -0.8137
vn 0.5201 -0.8539 0.0169
vn 0.3920 -0.5525 -0.7356
vn 0.6745 -0.6337 0.3788
vn 0.6885 0.7242 0.0399
vn 0.6946 -0.7191 -0.0208
usemtl archer_wpn_png.001
s off
f 1/1/1 2/2/1 3/3/1
f 1/1/2 24/4/2 2/2/2
f 1/1/3 3/3/3 22/5/3
f 1/1/4 23/6/4 24/4/4
f 1/1/5 22/5/5 25/7/5
f 1/1/6 26/8/6 23/6/6
f 1/1/7 25/7/7 29/9/7
f 1/1/8 29/9/8 26/8/8
f 2/2/9 27/10/9 3/3/9
f 2/2/10 24/4/10 20/11/10
f 2/2/11 4/12/11 27/10/11
f 2/2/12 20/11/12 19/13/12
f 2/2/13 19/13/13 4/12/13
f 27/10/14 4/12/14 21/14/14
f 19/13/15 7/15/15 4/12/15
f 21/14/16 4/12/16 6/16/16
f 7/15/17 5/17/17 4/12/17
f 7/15/18 8/18/18 5/17/18
f 4/12/19 5/17/19 6/16/19
f 5/17/20 28/19/20 6/16/20
f 30/20/21 31/21/21 32/22/21
f 30/20/22 48/23/22 31/21/22
f 30/20/23 32/22/23 50/24/23
f 30/20/24 51/25/24 48/23/24
f 30/20/25 50/24/25 49/26/25
f 30/20/26 56/27/26 51/25/26
f 30/20/27 49/26/27 52/28/27
f 30/20/28 52/28/28 56/27/28
f 31/21/29 53/29/29 32/22/29
f 50/24/30 32/22/30 54/30/30
f 53/29/31 33/31/31 32/22/31
f 53/29/32 47/32/32 33/31/32
f 54/30/33 32/22/33 46/33/33
f 32/22/34 33/31/34 46/33/34
f 47/32/35 34/34/35 33/31/35
f 46/33/36 33/31/36 36/35/36
f 34/34/37 35/36/37 33/31/37
f 34/34/38 55/37/38 35/36/38
f 33/31/39 35/36/39 36/35/39
f 35/36/40 37/38/40 36/35/40
f 11/39/41 9/40/41 10/41/41
f 11/39/42 12/42/42 9/40/42
f 11/39/43 10/41/43 18/43/43
f 11/39/44 14/44/44 12/42/44
f 11/39/45 18/43/45 17/45/45
f 11/39/46 16/46/46 14/44/46
f 11/39/47 17/45/47 16/46/47
f 9/40/48 12/42/48 13/47/48
f 14/44/49 15/48/49 12/42/49
f 39/49/50 40/50/50 38/51/50
f 39/49/51 45/52/51 40/50/51
f 39/49/52 38/51/52 41/53/52
f 39/49/53 44/54/53 45/52/53
f 39/49/54 41/53/54 42/55/54
f 39/49/55 43/56/55 44/54/55
f 39/49/56 42/55/56 43/56/56
f 38/51/57 58/57/57 41/53/57
f 42/55/58 41/53/58 57/58/58
