# 3ds Max Wavefront OBJ Exporter v0.97b - (c)2007 guruware
# File Created: 20.11.2019 15:43:24

mtllib WPNrider.mtl

#
# object _0_0_node
#

v  -0.6494 0.6295 -20.2114
v  -0.6494 -4.4658 -22.3219
v  0.4292 0.6295 -22.8197
v  -1.7281 -2.6215 -24.1661
v  0.4292 3.8804 -24.1661
v  -1.7281 0.6295 -22.8197
v  -0.6495 5.7248 -22.3220
v  0.4292 -2.6215 -24.1661
v  -1.7282 -3.9681 -27.4171
v  -0.6494 -6.5764 -27.4171
v  0.4292 5.2270 -27.4171
v  -1.7281 3.8804 -24.1661
v  0.4292 -3.9681 -27.4171
v  -1.7281 -2.6215 -30.6681
v  -1.7281 5.2270 -27.4171
v  -0.6495 7.8354 -27.4171
v  0.4292 3.8804 -30.6681
v  -0.6494 -4.4658 -32.5124
v  0.4292 -2.6215 -30.6681
v  -1.7281 3.8804 -30.6681
v  -0.6495 5.7248 -32.5124
v  -1.7281 -0.1460 -32.0148
v  0.4292 0.6295 -32.0148
v  -0.6494 0.6295 -34.6230
v  -0.5249 12.0233 -15.0891
v  -0.5249 8.8856 -13.8833
v  -0.5249 8.4314 -15.3739
v  -0.5249 12.0213 -6.9729
v  -0.5249 13.3246 -26.9645
v  -0.5249 15.5534 -7.9698
v  -0.5249 16.6208 -26.3624
v  -0.5249 16.3937 -33.3285
v  -0.5249 12.8615 -33.3285
v  -0.5249 11.0356 -44.9500
v  -0.5249 7.5034 -43.7394
v  -0.7770 12.0269 -15.0850
v  -0.7770 8.4314 -15.3739
v  -0.7770 8.8929 -13.8750
v  -0.7770 13.3246 -26.9645
v  -0.7770 12.0213 -6.9729
v  -0.7770 16.6208 -26.3624
v  -0.7770 15.5535 -7.9698
v  -0.7770 16.3937 -33.3285
v  -0.7770 12.8615 -33.3285
v  -0.7770 11.0356 -44.9500
v  -0.7770 7.5034 -43.7395
v  -0.6495 0.5782 -21.6959
v  -0.6494 -6.4397 -15.5807
v  -7.6675 0.5783 -15.5807
v  6.3685 0.5783 -15.5807
v  -0.6494 7.5963 -15.5807
v  -0.6494 -1.8171 -10.3155
v  -3.0448 0.5783 -10.3155
v  1.7459 0.5782 -10.3155
v  -0.6494 2.9736 -10.3155
v  -0.6494 -1.7918 21.6431
v  -3.0196 0.5782 21.6431
v  1.7206 0.5782 21.6431
v  -0.6495 2.9483 21.6431
v  -6.1162 0.5782 28.9695
v  -0.6495 -4.8885 28.9695
v  4.8173 0.5782 28.9695
v  -0.6495 6.0450 28.9695
v  -0.6495 0.5782 93.2833
v  -0.6495 18.0535 -39.9716
v  -0.6965 6.7395 -28.8526
v  -0.6696 5.4197 -31.4695
v  -0.6495 18.0535 -14.8997
v  -0.6696 5.4197 -23.4018
v  -0.6217 6.8016 -26.1008
v  -0.6494 21.8565 -27.5392
v  -0.6696 6.8920 -25.8520
v  -0.6766 6.7288 -28.9224
v  -0.6898 18.0535 -39.9716
v  -0.6898 18.0535 -14.8997
v  -0.6898 21.8565 -27.5392
# 76 vertices

vn 0.9127 -0.1563 0.3775
vn -0.9127 -0.1563 0.3775
vn 0.9127 0.1563 0.3775
vn 0.9127 0.1564 0.3775
vn -0.9127 0.1564 0.3775
vn -0.9127 -0.3775 0.1564
vn 0.9127 -0.3775 0.1564
vn 0.9127 0.3775 0.1564
vn 0.0000 -0.3827 -0.9239
vn 0.0000 -0.9239 -0.3827
vn 0.0000 -0.3826 -0.9239
vn 0.9127 -0.3775 0.1563
vn 0.0000 0.3826 -0.9239
vn -0.0000 0.9239 -0.3827
vn 0.0000 0.9239 -0.3827
vn -0.0000 0.3827 -0.9239
vn -0.9127 -0.3775 -0.1564
vn 0.0000 -0.9239 0.3827
vn 0.9127 0.3775 -0.1564
vn -0.9127 0.3775 0.1564
vn -0.0000 0.9239 0.3827
vn 0.9127 -0.3775 -0.1564
vn 0.0000 0.9239 0.3827
vn 0.9127 -0.3775 -0.1563
vn -0.9127 0.3775 0.1563
vn -0.9127 0.3775 -0.1564
vn 0.0000 0.4779 0.8784
vn -0.9183 -0.1892 -0.3478
vn 0.0000 -0.3827 0.9239
vn 0.1133 -0.3151 0.9423
vn -0.1363 0.3791 0.9153
vn 0.9127 0.1564 -0.3775
vn -0.9127 0.3775 -0.1563
vn -0.8906 -0.1740 -0.4201
vn -0.9295 0.1169 -0.3497
vn 0.9127 -0.1564 -0.3775
vn -0.9127 0.1564 -0.3775
vn 1.0000 0.0000 -0.0000
vn 1.0000 -0.0000 -0.0000
vn -1.0000 0.0000 0.0000
vn -1.0000 -0.0000 -0.0000
vn -1.0000 0.0000 -0.0000
vn -0.5491 -0.5491 -0.6301
vn 0.5491 -0.5491 -0.6301
vn -0.5491 0.5491 -0.6301
vn 0.5491 0.5491 -0.6301
vn -0.6008 -0.6007 0.5274
vn 0.6008 -0.6007 0.5274
vn 0.6008 -0.6008 0.5274
vn -0.6008 0.6007 0.5274
vn 0.6008 0.6007 0.5274
vn -0.6008 0.6008 0.5274
vn -0.7071 -0.7071 0.0006
vn 0.7071 -0.7071 0.0006
vn -0.7071 0.7071 0.0006
vn 0.7071 0.7071 0.0006
vn -0.6775 -0.6775 -0.2864
vn 0.6775 -0.6775 -0.2864
vn 0.6775 0.6775 -0.2864
vn -0.6775 0.6775 -0.2864
vn -0.7058 -0.7058 0.0600
vn 0.7058 -0.7058 0.0600
vn 0.7058 0.7058 0.0600
vn -0.7058 0.7058 0.0600
vn 1.0000 0.0040 0.0083
vn 0.9999 -0.0101 0.0126
vn 1.0000 -0.0016 -0.0022
vn -1.0000 -0.0063 -0.0071
vn -0.9999 0.0077 -0.0138
vn -1.0000 -0.0011 0.0023
# 70 vertex normals

vt 0.2621 0.7381 0.0000
vt 0.1195 0.7381 0.0000
vt 0.2621 0.6029 0.0000
vt 0.1195 0.6029 0.0000
vt 0.3973 0.6029 0.0000
vt 0.3973 0.7381 0.0000
vt 0.0099 0.6029 0.0000
vt 0.0099 0.7381 0.0000
vt 0.5252 0.6029 0.0000
vt 0.2621 0.5206 0.0000
vt 0.3973 0.5206 0.0000
vt 0.1195 0.5206 0.0000
vt 0.0099 0.5206 0.0000
vt 0.5252 0.5206 0.0000
vt 0.5252 0.7381 0.0000
vt 0.4547 0.4706 0.0000
vt 0.4582 0.3099 0.0000
vt 0.4369 0.3099 0.0000
vt 0.5485 0.3099 0.0000
vt 0.2805 0.3099 0.0000
vt 0.5485 0.4706 0.0000
vt 0.2893 0.4706 0.0000
vt 0.1875 0.4706 0.0000
vt 0.1875 0.3099 0.0000
vt 0.0090 0.4706 0.0000
vt 0.0090 0.3099 0.0000
vt 0.4548 0.4706 0.0000
vt 0.4584 0.3099 0.0000
vt 0.2796 0.3099 0.0000
vt 0.2916 0.4706 0.0000
vt 0.7723 0.9058 0.0000
vt 0.5720 0.6056 0.0000
vt 0.7756 0.6112 0.0000
vt 0.9646 0.5968 0.0000
vt 0.7059 0.3062 0.0000
vt 0.7774 0.3069 0.0000
vt 0.7746 0.3073 0.0000
vt 0.8440 0.3054 0.0000
vt 0.5318 0.7787 0.0000
vt 0.5318 0.8749 0.0000
vt 0.0106 0.7787 0.0000
vt 0.0106 0.8749 0.0000
vt 0.5318 0.9765 0.0000
vt 0.0106 0.9765 0.0000
vt 0.1005 0.1727 0.0000
vt 0.0149 0.0980 0.0000
vt 0.1065 0.0202 0.0000
vt 0.0182 0.1552 0.0000
vt 0.0136 0.1659 0.0000
vt 0.0186 0.1053 0.0000
vt 0.0146 0.2194 0.0000
vt 0.1035 0.2688 0.0000
vt 0.0182 0.1835 0.0000
vt 0.0139 0.1768 0.0000
vt 0.0184 0.2147 0.0000
vt 0.8259 0.1692 0.0000
vt 0.6588 0.0755 0.0000
vt 0.9912 0.1280 0.0000
vt 0.9912 0.0138 0.0000
# 59 texture coords

o _0_0_node
g _0_0_node
usemtl rider_wpn_png
s off
f 1/1/1 2/2/1 3/3/1 
f 1/1/2 4/4/2 2/2/2 
f 1/1/3 3/3/3 5/5/3 
f 1/1/2 6/3/2 4/4/2 
f 1/1/4 5/5/4 7/6/4 
f 1/1/5 7/6/5 6/3/5 
f 2/2/1 8/4/1 3/3/1 
f 2/2/6 4/4/6 9/7/6 
f 2/2/7 10/8/7 8/4/7 
f 2/2/6 9/7/6 10/8/6 
f 5/5/8 11/9/8 7/6/8 
f 5/5/9 3/3/9 6/10/9 
f 5/5/10 12/11/10 11/9/10 
f 5/5/11 6/10/11 12/11/11 
f 6/3/5 7/6/5 12/5/5 
f 8/4/12 10/8/12 13/7/12 
f 8/4/13 4/12/13 3/3/13 
f 8/4/14 13/7/14 9/13/14 
f 8/4/15 9/13/15 4/12/15 
f 4/12/16 6/10/16 3/3/16 
f 9/7/17 14/4/17 10/8/17 
f 11/9/10 12/11/10 15/14/10 
f 11/9/8 16/15/8 7/6/8 
f 11/9/18 15/14/18 17/5/18 
f 11/9/19 17/5/19 16/15/19 
f 7/6/20 16/15/20 12/5/20 
f 13/7/21 14/12/21 9/13/21 
f 13/7/22 10/8/22 18/2/22 
f 13/7/23 19/4/23 14/12/23 
f 13/7/24 18/2/24 19/4/24 
f 10/8/17 14/4/17 18/2/17 
f 15/14/18 20/11/18 17/5/18 
f 16/15/25 15/9/25 12/5/25 
f 16/15/19 17/5/19 21/6/19 
f 16/15/26 21/6/26 15/9/26 
f 14/12/27 19/4/27 22/10/27 
f 14/4/28 22/3/28 18/2/28 
f 20/11/29 23/3/29 17/5/29 
f 20/11/30 22/10/30 23/3/30 
f 22/10/31 19/4/31 23/3/31 
f 17/5/32 23/3/32 21/6/32 
f 15/9/33 21/6/33 20/5/33 
f 22/3/34 24/1/34 18/2/34 
f 22/3/35 20/5/35 24/1/35 
f 24/1/36 23/3/36 19/4/36 
f 24/1/32 21/6/32 23/3/32 
f 24/1/36 19/4/36 18/2/36 
f 24/1/37 20/5/37 21/6/37 
f 25/16/38 26/17/38 27/18/38 
f 25/16/38 28/19/38 26/17/38 
f 25/16/39 27/18/39 29/20/39 
f 25/16/38 30/21/38 28/19/38 
f 25/16/39 29/20/39 31/22/39 
f 29/20/38 32/23/38 31/22/38 
f 29/20/38 33/24/38 32/23/38 
f 33/24/38 34/25/38 32/23/38 
f 33/24/38 35/26/38 34/25/38 
f 36/27/40 37/18/40 38/28/40 
f 36/27/40 39/29/40 37/18/40 
f 36/27/41 38/28/41 40/19/41 
f 36/27/42 41/30/42 39/29/42 
f 36/27/41 40/19/41 42/21/41 
f 41/30/42 43/23/42 39/29/42 
f 43/23/42 44/24/42 39/29/42 
f 43/23/42 45/25/42 44/24/42 
f 45/25/42 46/26/42 44/24/42 
f 47/31/43 48/32/43 49/33/43 
f 47/31/44 50/33/44 48/32/44 
f 47/31/45 49/33/45 51/34/45 
f 47/31/46 51/34/46 50/33/46 
f 52/35/47 53/36/47 48/32/47 
f 52/35/48 48/32/48 50/33/48 
f 52/35/49 50/33/49 54/37/49 
f 53/36/47 49/33/47 48/32/47 
f 53/36/50 55/38/50 49/33/50 
f 50/33/51 51/34/51 54/37/51 
f 51/34/51 55/38/51 54/37/51 
f 51/34/52 49/33/52 55/38/52 
f 56/39/53 57/40/53 52/41/53 
f 56/39/54 52/41/54 54/42/54 
f 56/39/54 54/42/54 58/40/54 
f 57/40/53 53/42/53 52/41/53 
f 57/40/55 59/43/55 53/42/55 
f 54/42/56 55/44/56 58/40/56 
f 55/44/56 59/43/56 58/40/56 
f 55/44/55 53/42/55 59/43/55 
f 60/45/57 56/46/57 61/47/57 
f 60/45/57 57/48/57 56/46/57 
f 61/47/58 58/49/58 62/45/58 
f 61/47/58 56/50/58 58/49/58 
f 62/45/59 59/51/59 63/52/59 
f 62/45/59 58/53/59 59/51/59 
f 63/52/60 57/54/60 60/45/60 
f 63/52/60 59/55/60 57/54/60 
f 61/47/61 64/56/61 60/45/61 
f 62/45/62 64/56/62 61/47/62 
f 63/52/63 64/56/63 62/45/63 
f 60/45/64 64/56/64 63/52/64 
f 65/57/65 66/58/65 67/59/65 
f 68/57/66 69/58/66 70/59/66 
f 71/57/67 72/58/67 73/59/67 
f 74/57/68 67/59/68 66/58/68 
f 75/57/69 70/59/69 69/58/69 
f 76/57/70 73/59/70 72/58/70 
# 0 polygons - 104 triangles

